<?xml version="1.0" encoding="UTF-8" standalone="no"?>
<!-- Created with Inkscape (http://www.inkscape.org/) -->

<svg
   xmlns:dc="http://purl.org/dc/elements/1.1/"
   xmlns:cc="http://creativecommons.org/ns#"
   xmlns:rdf="http://www.w3.org/1999/02/22-rdf-syntax-ns#"
   xmlns:svg="http://www.w3.org/2000/svg"
   xmlns="http://www.w3.org/2000/svg"
   xmlns:sodipodi="http://sodipodi.sourceforge.net/DTD/sodipodi-0.dtd"
   xmlns:inkscape="http://www.inkscape.org/namespaces/inkscape"
   width="510.33484"
   height="130.00003"
   viewBox="0 0 510.33485 130.00003"
   id="svg2"
   version="1.1"
   inkscape:version="0.91 r"
   sodipodi:docname="logo_turco2.svg"
   inkscape:export-filename="/home/enrique/Dropbox/Artes y Diseños/Logos - No publicos/turco2.png"
   inkscape:export-xdpi="72"
   inkscape:export-ydpi="72">
  <defs
     id="defs4" />
  <sodipodi:namedview
     id="base"
     pagecolor="#ffffff"
     bordercolor="#666666"
     borderopacity="1.0"
     inkscape:pageopacity="0.0"
     inkscape:pageshadow="2"
     inkscape:zoom="1.2441087"
     inkscape:cx="246.62457"
     inkscape:cy="43.308936"
     inkscape:document-units="px"
     inkscape:current-layer="layer1"
     showgrid="false"
     units="px"
     inkscape:showpageshadow="true"
     fit-margin-top="5"
     fit-margin-left="5"
     fit-margin-right="5"
     fit-margin-bottom="5"
     inkscape:window-width="1366"
     inkscape:window-height="710"
     inkscape:window-x="0"
     inkscape:window-y="0"
     inkscape:window-maximized="1" />
  <metadata
     id="metadata7">
    <rdf:RDF>
      <cc:Work
         rdf:about="">
        <dc:format>image/svg+xml</dc:format>
        <dc:type
           rdf:resource="http://purl.org/dc/dcmitype/StillImage" />
        <dc:title></dc:title>
      </cc:Work>
    </rdf:RDF>
  </metadata>
  <g
     inkscape:label="Capa 1"
     inkscape:groupmode="layer"
     id="layer1"
     transform="translate(-124.43269,-493.00708)">
    <g
       id="g4223"
       transform="matrix(0.84166148,0,0,0.94033118,-92.970685,106.0998)">
      <path
         sodipodi:nodetypes="cssccscc"
         inkscape:connector-curvature="0"
         id="path4221"
         d="m 399.71297,535.00158 c -3.32983,-0.40375 -9.51056,-2.09506 -12.1901,-3.33573 -3.81827,-1.76792 -4.32014,-2.92633 -2.1111,-4.87276 2.76492,-2.43622 4.16635,-2.90787 8.57648,-2.88638 11.5508,4.75644 41.38866,-2.54439 43.39146,3.01916 0,0.65561 -4.02323,4.68897 -5.37901,5.39255 -1.42663,0.74035 -4.03225,1.56788 -5.87962,1.86733 -13.01245,2.57788 -13.26385,2.37943 -26.40811,0.81583 z"
         style="fill:#501616" />
      <path
         inkscape:connector-curvature="0"
         id="path4219"
         d="m 334.26027,531.27756 c -5.79786,-0.33317 -12.70222,-1.17911 -15.83842,-1.94057 -7.01844,-1.70405 -14.06058,-5.11322 -15.27814,-7.39629 -1.13815,-2.13419 1.2146,-4.38191 4.58603,-4.3813 1.63532,3e-4 6.11142,0.7921 8.59305,1.52006 0.62972,0.18473 2.08952,0.53125 3.24401,0.77004 1.15448,0.23879 3.12952,0.66879 4.38896,0.95554 4.03278,0.91818 8.66891,1.34997 14.52245,1.35257 7.84798,0.003 13.79543,-0.91934 20.97085,-3.25389 11.7209,-3.81344 25.84198,-12.6522 37.604,-23.53735 2.63022,-2.43415 5.42103,-4.76652 6.20178,-5.18306 1.41416,-0.75446 1.4249,-0.75446 2.82162,0 1.5708,0.8485 4.07481,3.82513 4.91465,5.84227 1.2935,3.10672 0.16712,6.13005 -3.70281,9.93883 -2.77754,2.73365 -3.9095,3.62115 -8.1478,6.38813 -10.37955,6.77631 -22.99645,13.09921 -31.29517,15.68342 -10.96583,3.41475 -18.28254,4.12096 -33.58506,3.2416 z"
         style="fill:#501616" />
      <path
         sodipodi:nodetypes="ssccscsccs"
         inkscape:connector-curvature="0"
         id="path4217"
         d="m 283.00257,519.39951 c -0.41981,-0.11649 -1.14971,-0.56934 -1.622,-1.00632 -1.73556,-1.60585 -0.82108,-3.56577 3.0348,-6.50421 10.92234,-7.25886 6.6964,-1.89216 15.05499,-10.25638 5.16165,-5.22834 9.02863,-10.94591 9.02863,-13.34941 0,-1.18674 1.36882,-2.51337 2.591,-2.51112 1.16834,0.002 2.52386,1.05761 4.02278,3.13229 1.21355,1.6797 1.39026,4.59905 0.39681,6.55555 -10.13642,14.13489 -10.53711,23.25673 -27.51971,24.01276 -2.3232,0.0762 -4.56748,0.0433 -4.9873,-0.0732 z"
         style="fill:#501616" />
      <path
         sodipodi:nodetypes="cssccsscc"
         inkscape:connector-curvature="0"
         id="path4215"
         d="m 420.13117,522.49239 c -9.04814,-0.96727 -11.02557,-1.25736 -14.69347,-2.15557 -4.37026,-1.07021 -5.72473,-1.73034 -5.72473,-2.7901 0,-1.57497 5.8608,-2.4346 19.46407,-2.85489 12.29109,1.21996 20.96666,-5.25537 26.42255,-9.29365 1.7517,-0.0867 1.7517,-0.0867 1.8654,1.87619 0.0932,1.60938 -0.12959,2.46458 -1.23714,4.74841 -1.44979,2.98953 -3.91366,6.53667 -5.51923,7.9458 -7.56729,5.0152 -12.56921,3.33627 -20.57745,2.52381 z"
         style="fill:#501616" />
      <path
         inkscape:connector-curvature="0"
         id="path4213"
         d="m 331.01626,517.85624 c -2.15244,-0.31428 -3.77581,-0.67909 -9.73204,-2.18707 -2.31123,-0.58514 -6.99578,-3.01806 -7.44953,-3.8689 -0.61183,-1.14727 -0.2364,-3.74174 0.67359,-4.65495 1.30178,-1.30638 4.47824,-1.86299 11.73737,-2.05672 9.21366,-0.24589 12.16669,-0.6617 20.22737,-2.84816 10.12049,-2.74518 21.24395,-9.40714 32.68422,-19.57495 7.84218,-6.96991 9.19881,-7.53076 12.74978,-5.27083 4.51095,2.87089 6.12651,4.85751 5.62192,6.91315 -0.43703,1.78041 -4.48026,7.47131 -7.31353,10.2939 -10.956,10.91472 -29.09902,20.40718 -44.31487,23.18563 -3.20237,0.58476 -11.10082,0.62132 -14.88428,0.0689 z"
         style="fill:#501616" />
      <path
         sodipodi:nodetypes="cccsssscc"
         inkscape:connector-curvature="0"
         id="path4211"
         d="m 271.00441,510.16338 c -1.45233,-0.64334 -2.25646,-1.58154 -2.8832,-3.3639 1.24965,-11.41709 15.44496,-13.05773 23.70449,-19.76228 8.2852,-6.77329 10.53555,-8.00564 12.39098,-6.78561 0.85592,0.5628 0.91406,0.77987 0.68103,2.54272 -0.14013,1.06006 -0.78461,2.98195 -1.43217,4.27087 -5.95876,11.86036 -17.12698,20.55329 -27.69052,23.10169 -2.62261,0.63269 -3.33562,0.63217 -4.7706,-0.003 z"
         style="fill:#501616" />
      <path
         inkscape:connector-curvature="0"
         id="path4209"
         d="m 415.04212,509.28763 c -1.27439,-0.89578 -0.90662,-2.02953 1.16379,-3.58772 1.96615,-1.47973 3.27498,-2.1829 10.98576,-5.90211 4.74324,-2.28785 6.26771,-3.15402 10.46573,-5.9464 2.99147,-1.98982 6.6788,-4.88353 9.5655,-7.50673 3.72258,-3.38279 7.00653,-5.88185 8.11448,-6.17506 1.60714,-0.42533 2.00451,0.0474 2.00451,2.38448 0,5.24274 -7.35391,16.33048 -13.97669,21.07311 -3.62314,2.59458 -6.95192,3.81888 -14.99397,5.51468 -4.64402,0.97926 -12.02842,1.06001 -13.32911,0.14575 z"
         style="fill:#501616" />
      <path
         inkscape:connector-curvature="0"
         id="path4207"
         d="m 324.14658,499.69336 c -2.97447,-1.02914 -3.43484,-1.72236 -3.43484,-5.17215 0,-3.52681 0.15773,-3.69654 4.38896,-4.72298 10.38452,-2.51914 19.7563,-7.3756 34.34836,-17.79934 8.54715,-6.10559 9.88784,-6.4371 16.26354,-4.02143 1.9702,0.74648 4.35502,1.62762 5.2996,1.95808 2.39344,0.83735 3.05319,1.22897 3.05319,1.81237 0,0.64121 -9.99301,9.18417 -14.6199,12.49845 -10.08264,7.22229 -20.45944,12.42491 -28.31555,14.19658 -8.5022,1.91738 -13.9058,2.31522 -16.98336,1.25042 z"
         style="fill:#501616" />
      <path
         inkscape:connector-curvature="0"
         id="path4205"
         d="m 410.99037,489.31291 c -9.88955,-9.53898 -15.64404,-14.44268 -21.77273,-18.5537 -4.83177,-3.24107 -13.32868,-7.57828 -16.22006,-8.27947 -3.05581,-0.74106 -5.48473,-1.19069 -7.82379,-1.44832 -2.78925,-0.3072 -3.37296,-0.58323 -5.42504,-2.56541 -1.83447,-1.77198 -2.40259,-3.87559 -1.65808,-6.13946 0.35052,-1.06584 0.807,-1.48882 2.30427,-2.13521 1.63117,-0.70419 2.61499,-0.80608 7.78369,-0.80608 3.7929,0 6.84969,0.20318 8.51634,0.56608 1.4299,0.31134 3.45852,0.75587 4.50805,0.98785 2.33993,0.51721 6.37821,2.13006 8.29327,3.31225 0.78298,0.48335 1.52239,0.87881 1.64313,0.87881 0.46196,0 6.64032,4.10777 10.29097,6.8421 4.55991,3.41535 10.87852,8.95144 14.33879,12.56301 3.92408,4.09565 6.18235,6.91428 9.29962,11.60717 4.11304,6.192 3.9934,7.09592 -1.29278,9.76741 -1.46942,0.74261 -3.09348,1.3502 -3.60901,1.3502 -0.70051,0 -3.01902,-2.0079 -9.17663,-7.94723 z"
         style="fill:#501616" />
      <path
         inkscape:connector-curvature="0"
         id="path4203"
         d="m 267.85343,494.43782 c -2.34645,-1.06573 -3.58043,-3.52197 -3.6089,-7.18353 -0.0256,-3.28973 0.32547,-4.39532 2.00283,-6.30764 2.54176,-2.89781 6.1451,-4.73206 11.70043,-5.956 4.10012,-0.90333 6.7314,-0.88619 10.32384,0.0673 3.38453,0.89825 4.72487,1.78287 4.89571,3.23111 0.18891,1.60141 -2.79196,4.25081 -10.90807,9.69513 -9.86775,6.61931 -11.96878,7.56055 -14.40584,6.45367 z"
         style="fill:#501616" />
      <path
         inkscape:connector-curvature="0"
         id="path4201"
         d="m 433.96593,489.28359 c -1.36097,-0.90063 -2.84822,-2.67546 -6.95584,-8.30091 -3.58211,-4.90574 -11.95653,-13.60495 -16.99261,-17.65163 -10.0216,-8.05275 -21.14009,-14.65408 -27.28786,-16.20151 -7.39122,-1.86042 -11.56653,-2.34582 -20.15203,-2.3428 -9.54981,0.003 -13.58423,-0.85487 -15.4984,-3.29696 -2.10081,-2.6802 0.51756,-6.59913 5.30938,-7.94658 5.33731,-1.50084 11.71172,-1.70014 20.10562,-0.62859 11.82074,1.509 17.52273,2.97314 23.59312,6.05814 8.36773,4.25253 24.40072,17.9092 32.46072,27.64956 9.39189,11.34993 12.2578,18.89048 8.58173,22.57956 -0.95898,0.96237 -1.80021,0.9841 -3.16383,0.0817 z"
         style="fill:#501616" />
      <path
         inkscape:connector-curvature="0"
         id="path4199"
         d="m 318.37185,484.08296 c -0.97207,-0.48448 -4.23517,-2.42654 -7.25132,-4.3157 -3.01614,-1.88915 -6.085,-3.70747 -6.81967,-4.0407 -1.57131,-0.71273 -4.30028,-1.90576 -5.91555,-2.58612 -3.78008,-1.59218 -12.49409,-4.08396 -17.365,-4.96553 -2.32564,-0.42091 -5.01284,-1.05683 -8.58709,-2.0321 -4.14475,-1.13095 -5.41082,-3.1302 -4.36821,-6.89782 0.54666,-1.9754 1.55504,-2.79299 4.06986,-3.29983 3.89618,-0.78523 16.95797,-0.35434 22.62478,0.74636 4.96801,0.96498 10.45752,3.691 19.35941,9.61365 7.26992,4.83686 10.21133,7.06815 12.97106,9.8396 3.79413,3.81022 3.67678,5.88517 -0.44357,7.84296 -2.77616,1.3191 -5.7504,1.35333 -8.2747,0.0952 z"
         style="fill:#501616" />
      <path
         inkscape:connector-curvature="0"
         id="path4197"
         d="m 442.79103,479.77323 c -0.3365,-0.38805 -0.71308,-1.37015 -0.83685,-2.18244 -0.55494,-3.64207 -4.42253,-8.65615 -14.37236,-18.63284 -8.9259,-8.95 -17.27165,-16.15849 -24.56858,-21.22068 -3.21614,-2.23117 -8.6292,-4.80831 -12.45983,-5.9321 -0.73467,-0.21553 -1.93686,-0.58979 -2.67154,-0.83169 -0.73467,-0.24191 -1.93686,-0.57208 -2.67154,-0.73372 -9.81967,-2.16047 -16.80216,-2.92278 -23.31406,-2.54528 -6.45455,0.37417 -8.15542,0.68971 -15.0416,2.79046 -1.04954,0.32017 -3.14952,0.67215 -4.66664,0.78218 -2.4911,0.18066 -2.92543,0.10181 -4.48224,-0.81377 -3.25539,-1.91454 -3.67814,-4.78103 -0.97032,-6.57932 1.76463,-1.17191 6.30721,-2.77572 9.16507,-3.23582 15.03597,-2.42076 32.82161,-2.55451 41.98133,-0.31572 4.17712,1.02096 8.93451,2.98817 16.65274,6.88602 17.24056,8.7068 26.40745,17.10239 37.7028,34.53055 1.60491,2.47627 3.77992,6.22069 4.83337,8.32094 1.67871,3.34681 1.90108,4.06335 1.7997,5.79915 -0.10199,1.74611 -0.27725,2.11144 -1.4808,3.0866 -1.77033,1.43439 -3.76163,1.7927 -4.59865,0.82748 z"
         style="fill:#501616" />
      <path
         inkscape:connector-curvature="0"
         id="path4195"
         d="m 336.16851,476.21809 c -2.55079,-1.19119 -5.57156,-3.34881 -10.46191,-7.47256 -14.9508,-12.60711 -33.014,-20.12627 -48.34916,-20.12627 -3.77224,0 -8.33952,-0.6868 -10.56812,-1.58918 -3.01025,-1.21887 -2.18511,-4.76697 2.10629,-9.05702 3.67223,-3.67107 6.18054,-4.6668 11.74305,-4.66168 10.39406,0.01 27.92931,6.52409 37.97402,14.10769 5.63698,4.25583 6.92971,5.30939 10.60168,8.64017 9.70252,8.80099 14.77794,14.94821 14.77794,17.89865 0,0.56624 -0.44462,1.55981 -0.98804,2.20792 -0.8527,1.01695 -1.23174,1.17449 -2.76695,1.15 -1.09558,-0.0175 -2.65853,-0.43915 -4.0688,-1.09772 z"
         style="fill:#501616" />
      <path
         sodipodi:nodetypes="sccsccssss"
         inkscape:connector-curvature="0"
         id="path4193"
         d="m 349.10831,468.98735 c -2.66202,-1.72794 -5.63911,-4.47694 -14.65722,-13.53426 -13.75855,-15.1765 -32.75462,-22.10856 -38.96003,-22.40104 -9.0091,-0.46424 -12.16059,-2.0871 -10.73942,-5.53027 0.61228,-1.4834 4.10171,-4.76489 5.96515,-5.60968 12.27958,-3.35203 19.75872,-0.8915 25.96911,0.93453 0.63991,0.3268 2.53741,1.49899 4.21667,2.60487 15.77944,10.3916 35.30248,32.84849 35.30248,40.60761 0,1.33685 -0.24387,1.96219 -1.18448,3.03727 -1.60286,1.83203 -2.96049,1.80699 -5.91226,-0.10903 z"
         style="fill:#501616" />
      <path
         inkscape:connector-curvature="0"
         id="path4191"
         d="m 450.08008,465.20155 c -2.76041,-1.90928 -3.86257,-6.09359 -2.47983,-9.41465 1.50449,-3.61351 4.6374,-3.85517 7.69526,-0.59358 3.26663,3.48428 3.6405,8.07969 0.8187,10.06315 -1.17685,0.82721 -4.80652,0.79418 -6.03413,-0.0549 z"
         style="fill:#501616" />
      <path
         sodipodi:nodetypes="cssccscc"
         inkscape:connector-curvature="0"
         id="path4189"
         d="m 440.76192,447.45231 c -2.08047,-1.04163 -2.86886,-1.85484 -6.48051,-6.68453 -2.89037,-3.86513 -4.03656,-5.58869 -4.03656,-6.06984 0,-0.33792 4.79025,-2.87691 7.08393,-3.75472 6.53196,-1.82171 13.46204,1.03396 13.78007,8.72581 0.005,3.29581 2.06268,6.35825 -4.20073,8.03182 -2.67429,0.71456 -4.35861,0.64645 -6.1462,-0.24854 z"
         style="fill:#501616" />
      <path
         sodipodi:nodetypes="ssccs"
         inkscape:connector-curvature="0"
         id="path4185"
         d="m 423.75683,431.47599 c -2.41072,-1.19249 -4.57979,-3.83459 -4.57979,-5.57856 0,-1.21276 2.03719,-3.59134 5.12035,-5.97839 9.1693,-2.23374 10.98208,7.86448 6.90158,10.13441 -3.00486,1.38049 -6.26671,2.00398 -7.44214,1.42254 z"
         style="fill:#501616" />
    </g>
    <text
       xml:space="preserve"
       style="color:#000000;font-style:normal;font-variant:normal;font-weight:normal;font-stretch:normal;font-size:152.75787354px;line-height:120.00000477%;font-family:Arial;-inkscape-font-specification:'Arial, Normal';text-indent:0;text-align:start;text-decoration:none;text-decoration-line:none;text-decoration-style:solid;text-decoration-color:#000000;letter-spacing:0px;word-spacing:0px;text-transform:none;direction:ltr;block-progression:tb;writing-mode:lr-tb;baseline-shift:baseline;text-anchor:start;white-space:normal;clip-rule:nonzero;display:inline;overflow:visible;visibility:visible;opacity:1;isolation:auto;mix-blend-mode:normal;color-interpolation:sRGB;color-interpolation-filters:linearRGB;solid-color:#000000;solid-opacity:1;fill:#622599;fill-opacity:1;fill-rule:nonzero;stroke:none;stroke-width:1px;stroke-linecap:butt;stroke-linejoin:miter;stroke-miterlimit:4;stroke-dasharray:none;stroke-dashoffset:0;stroke-opacity:1;color-rendering:auto;image-rendering:auto;shape-rendering:auto;text-rendering:auto;enable-background:accumulate"
       x="310.29465"
       y="605.8739"
       id="text4243"
       sodipodi:linespacing="120%"
       transform="scale(1.0140352,0.98615902)"><tspan
         sodipodi:role="line"
         id="tspan4245"
         x="310.29465"
         y="605.8739"
         style="font-style:normal;font-variant:normal;font-weight:normal;font-stretch:normal;font-family:Ubuntu;-inkscape-font-specification:Ubuntu;fill:#622599;fill-opacity:1" /></text>
    <text
       xml:space="preserve"
       style="color:#000000;font-style:normal;font-variant:normal;font-weight:normal;font-stretch:normal;font-size:30.2353611px;line-height:120.00000477%;font-family:Arial;-inkscape-font-specification:'Arial, Normal';text-indent:0;text-align:start;text-decoration:none;text-decoration-line:none;text-decoration-style:solid;text-decoration-color:#000000;letter-spacing:0px;word-spacing:0px;text-transform:none;direction:ltr;block-progression:tb;writing-mode:lr-tb;baseline-shift:baseline;text-anchor:start;white-space:normal;clip-rule:nonzero;display:inline;overflow:visible;visibility:visible;opacity:1;isolation:auto;mix-blend-mode:normal;color-interpolation:sRGB;color-interpolation-filters:linearRGB;solid-color:#000000;solid-opacity:1;fill:#000000;fill-opacity:1;fill-rule:nonzero;stroke:none;stroke-width:1px;stroke-linecap:butt;stroke-linejoin:miter;stroke-miterlimit:4;stroke-dasharray:none;stroke-dashoffset:0;stroke-opacity:1;color-rendering:auto;image-rendering:auto;shape-rendering:auto;text-rendering:auto;enable-background:accumulate"
       x="364.14795"
       y="568.82806"
       id="text4247"
       sodipodi:linespacing="120%"
       transform="scale(0.90515628,1.1047816)"><tspan
         sodipodi:role="line"
         id="tspan4249"
         x="364.14795"
         y="568.82806"
         style="font-style:normal;font-variant:normal;font-weight:normal;font-stretch:normal;font-size:15.11768055px;font-family:sans-serif;-inkscape-font-specification:sans-serif" /></text>
    <flowRoot
       xml:space="preserve"
       id="flowRoot4251"
       style="color:#000000;font-style:normal;font-variant:normal;font-weight:normal;font-stretch:normal;font-size:25px;line-height:120.00000477%;font-family:Arial;-inkscape-font-specification:'Arial, Normal';text-indent:0;text-align:start;text-decoration:none;text-decoration-line:none;text-decoration-style:solid;text-decoration-color:#000000;letter-spacing:0px;word-spacing:0px;text-transform:none;direction:ltr;block-progression:tb;writing-mode:lr-tb;baseline-shift:baseline;text-anchor:start;white-space:normal;clip-rule:nonzero;display:inline;overflow:visible;visibility:visible;opacity:1;isolation:auto;mix-blend-mode:normal;color-interpolation:sRGB;color-interpolation-filters:linearRGB;solid-color:#000000;solid-opacity:1;fill:#000000;fill-opacity:1;fill-rule:nonzero;stroke:none;stroke-width:1px;stroke-linecap:butt;stroke-linejoin:miter;stroke-miterlimit:4;stroke-dasharray:none;stroke-dashoffset:0;stroke-opacity:1;color-rendering:auto;image-rendering:auto;shape-rendering:auto;text-rendering:auto;enable-background:accumulate"
       transform="translate(0,62.362205)"><flowRegion
         id="flowRegion4253"><rect
           id="rect4255"
           width="479.58145"
           height="219.80815"
           x="52.681293"
           y="650.29651" /></flowRegion><flowPara
         id="flowPara4257" /></flowRoot>    <g
       style="color:#000000;font-style:normal;font-variant:normal;font-weight:normal;font-stretch:normal;font-size:13.87544537px;line-height:120.00000477%;font-family:Arial;-inkscape-font-specification:'Arial, Normal';text-indent:0;text-align:start;text-decoration:none;text-decoration-line:none;text-decoration-style:solid;text-decoration-color:#000000;letter-spacing:0px;word-spacing:0px;text-transform:none;direction:ltr;block-progression:tb;writing-mode:lr-tb;baseline-shift:baseline;text-anchor:start;white-space:normal;clip-rule:nonzero;display:inline;overflow:visible;visibility:visible;opacity:1;isolation:auto;mix-blend-mode:normal;color-interpolation:sRGB;color-interpolation-filters:linearRGB;solid-color:#000000;solid-opacity:1;fill:#000000;fill-opacity:1;fill-rule:nonzero;stroke:none;stroke-width:1px;stroke-linecap:butt;stroke-linejoin:miter;stroke-miterlimit:4;stroke-dasharray:none;stroke-dashoffset:0;stroke-opacity:1;color-rendering:auto;image-rendering:auto;shape-rendering:auto;text-rendering:auto;enable-background:accumulate"
       id="text4259" />
    <path
       inkscape:connector-curvature="0"
       id="path4507"
       d="m 535.3033,593.69024 q -8.69847,0 -15.32588,-2.76142 -6.48933,-2.76142 -11.04567,-7.73197 -4.41827,-4.97056 -6.62741,-11.73603 -2.20913,-6.90355 -2.20913,-15.18781 0,-8.28425 2.3472,-15.1878 2.48528,-6.90355 6.90355,-11.8741 4.41827,-5.10863 10.76953,-7.87004 6.48934,-2.89949 14.35938,-2.89949 4.83248,0 9.66497,0.82842 4.83248,0.82843 9.25075,2.62335 l -2.89949,10.9076 q -2.89949,-1.38071 -6.76548,-2.20913 -3.72791,-0.82843 -8.00811,-0.82843 -10.76953,0 -16.56851,6.76548 -5.66091,6.76548 -5.66091,19.74414 0,5.79898 1.24264,10.63147 1.38071,4.83248 4.14212,8.28425 2.89949,3.45178 7.31776,5.38477 4.41827,1.79492 10.76954,1.79492 5.10862,0 9.25075,-0.9665 4.14213,-0.96649 6.48933,-2.07106 l 1.79493,10.76953 q -1.10457,0.69036 -3.17564,1.38071 -2.07106,0.55229 -4.69441,0.9665 -2.62334,0.55228 -5.66091,0.82842 -2.89949,0.41422 -5.6609,0.41422 z"
       style="color:#000000;font-style:normal;font-variant:normal;font-weight:normal;font-stretch:normal;font-size:medium;line-height:120.00000477%;font-family:Ubuntu;-inkscape-font-specification:Ubuntu;text-indent:0;text-align:start;text-decoration:none;text-decoration-line:none;text-decoration-style:solid;text-decoration-color:#000000;letter-spacing:0px;word-spacing:0px;text-transform:none;direction:ltr;block-progression:tb;writing-mode:lr-tb;baseline-shift:baseline;text-anchor:start;white-space:normal;clip-rule:nonzero;visibility:visible;isolation:auto;mix-blend-mode:normal;color-interpolation:sRGB;color-interpolation-filters:linearRGB;solid-color:#000000;solid-opacity:1;fill:#622599;fill-opacity:1;fill-rule:nonzero;stroke:none;stroke-width:1px;stroke-linecap:butt;stroke-linejoin:miter;stroke-miterlimit:4;stroke-dasharray:none;stroke-dashoffset:0;stroke-opacity:1;color-rendering:auto;image-rendering:auto;shape-rendering:auto;text-rendering:auto" />
    <path
       inkscape:connector-curvature="0"
       id="path4505"
       d="m 477.21426,518.71772 q 1.65685,0 3.72792,0.27614 2.20913,0.13807 4.2802,0.55228 2.07106,0.27615 3.72791,0.69036 1.79492,0.27614 2.62335,0.55228 l -2.20914,11.18375 q -1.51878,-0.55229 -5.10862,-1.24264 -3.45177,-0.82843 -8.97461,-0.82843 -3.58985,0 -7.17969,0.82843 -3.45177,0.69035 -4.55634,0.9665 l 0,60.337 -12.8406,0 0,-68.75933 q 4.55634,-1.65685 11.32182,-3.03756 6.76547,-1.51878 15.1878,-1.51878 z"
       style="color:#000000;font-style:normal;font-variant:normal;font-weight:normal;font-stretch:normal;font-size:medium;line-height:120.00000477%;font-family:Ubuntu;-inkscape-font-specification:Ubuntu;text-indent:0;text-align:start;text-decoration:none;text-decoration-line:none;text-decoration-style:solid;text-decoration-color:#000000;letter-spacing:0px;word-spacing:0px;text-transform:none;direction:ltr;block-progression:tb;writing-mode:lr-tb;baseline-shift:baseline;text-anchor:start;white-space:normal;clip-rule:nonzero;visibility:visible;isolation:auto;mix-blend-mode:normal;color-interpolation:sRGB;color-interpolation-filters:linearRGB;solid-color:#000000;solid-opacity:1;fill:#622599;fill-opacity:1;fill-rule:nonzero;stroke:none;stroke-width:1px;stroke-linecap:butt;stroke-linejoin:miter;stroke-miterlimit:4;stroke-dasharray:none;stroke-dashoffset:0;stroke-opacity:1;color-rendering:auto;image-rendering:auto;shape-rendering:auto;text-rendering:auto" />
    <path
       inkscape:connector-curvature="0"
       id="path4503"
       d="m 428.58309,589.96232 q -4.41827,1.10457 -11.73603,2.34721 -7.17969,1.24264 -16.70658,1.24264 -8.28426,0 -13.94517,-2.34721 -5.66091,-2.48528 -9.11268,-6.90355 -3.45177,-4.41827 -4.97056,-10.35532 -1.51878,-6.07512 -1.51878,-13.39288 l 0,-40.31671 12.8406,0 0,37.55529 q 0,13.11674 4.14213,18.77765 4.14213,5.66091 13.94516,5.66091 2.07107,0 4.2802,-0.13807 2.20914,-0.13807 4.14213,-0.27614 1.933,-0.27615 3.45178,-0.41422 1.65685,-0.27614 2.3472,-0.55228 l 0,-60.61314 12.8406,0 0,69.72582 z"
       style="color:#000000;font-style:normal;font-variant:normal;font-weight:normal;font-stretch:normal;font-size:medium;line-height:120.00000477%;font-family:Ubuntu;-inkscape-font-specification:Ubuntu;text-indent:0;text-align:start;text-decoration:none;text-decoration-line:none;text-decoration-style:solid;text-decoration-color:#000000;letter-spacing:0px;word-spacing:0px;text-transform:none;direction:ltr;block-progression:tb;writing-mode:lr-tb;baseline-shift:baseline;text-anchor:start;white-space:normal;clip-rule:nonzero;visibility:visible;isolation:auto;mix-blend-mode:normal;color-interpolation:sRGB;color-interpolation-filters:linearRGB;solid-color:#000000;solid-opacity:1;fill:#622599;fill-opacity:1;fill-rule:nonzero;stroke:none;stroke-width:1px;stroke-linecap:butt;stroke-linejoin:miter;stroke-miterlimit:4;stroke-dasharray:none;stroke-dashoffset:0;stroke-opacity:1;color-rendering:auto;image-rendering:auto;shape-rendering:auto;text-rendering:auto" />
    <path
       inkscape:connector-curvature="0"
       id="path4501"
       d="m 327.88191,520.2365 27.19998,0 0,10.76953 -27.19998,0 0,33.13703 q 0,5.38476 0.82843,8.97461 0.82842,3.45177 2.48528,5.52284 1.65685,1.93299 4.14212,2.76141 2.48528,0.82843 5.79898,0.82843 5.79898,0 9.25076,-1.24264 3.58984,-1.38071 4.97055,-1.93299 l 2.48528,10.63146 q -1.933,0.9665 -6.76548,2.34721 -4.83248,1.51878 -11.04567,1.51878 -7.31776,0 -12.15025,-1.79493 -4.69441,-1.93299 -7.5939,-5.6609 -2.89949,-3.72792 -4.14213,-9.11269 -1.10456,-5.52283 -1.10456,-12.70252 l 0,-64.06492 12.84059,-2.20913 0,22.22942 z"
       style="color:#000000;font-style:normal;font-variant:normal;font-weight:normal;font-stretch:normal;font-size:medium;line-height:120.00000477%;font-family:Ubuntu;-inkscape-font-specification:Ubuntu;text-indent:0;text-align:start;text-decoration:none;text-decoration-line:none;text-decoration-style:solid;text-decoration-color:#000000;letter-spacing:0px;word-spacing:0px;text-transform:none;direction:ltr;block-progression:tb;writing-mode:lr-tb;baseline-shift:baseline;text-anchor:start;white-space:normal;clip-rule:nonzero;visibility:visible;isolation:auto;mix-blend-mode:normal;color-interpolation:sRGB;color-interpolation-filters:linearRGB;solid-color:#000000;solid-opacity:1;fill:#622599;fill-opacity:1;fill-rule:nonzero;stroke:none;stroke-width:1px;stroke-linecap:butt;stroke-linejoin:miter;stroke-miterlimit:4;stroke-dasharray:none;stroke-dashoffset:0;stroke-opacity:1;color-rendering:auto;image-rendering:auto;shape-rendering:auto;text-rendering:auto" />
    <path
       inkscape:connector-curvature="0"
       id="path4499"
       d="m 618.85185,612.93932 1.20597,-0.1897 q 0.10163,0.72494 0.56234,1.11112 0.46748,0.38618 1.30082,0.38618 0.84011,0 1.24662,-0.33875 0.40651,-0.34554 0.40651,-0.80624 0,-0.41329 -0.35908,-0.65042 -0.25068,-0.1626 -1.24662,-0.41328 -1.34148,-0.33875 -1.86316,-0.58266 -0.51491,-0.25068 -0.78592,-0.68429 -0.26423,-0.44038 -0.26423,-0.96884 0,-0.48103 0.21681,-0.88754 0.22358,-0.41328 0.60298,-0.68429 0.28456,-0.21002 0.77237,-0.3523 0.49458,-0.14905 1.05692,-0.14905 0.84689,0 1.48375,0.2439 0.64363,0.2439 0.94851,0.66396 0.30488,0.41328 0.42006,1.11112 l -1.19242,0.1626 q -0.0813,-0.55556 -0.47426,-0.86721 -0.38618,-0.31166 -1.09757,-0.31166 -0.84011,0 -1.19919,0.27778 -0.35908,0.27778 -0.35908,0.65042 0,0.23712 0.14905,0.42683 0.14905,0.19648 0.46748,0.3252 0.18293,0.0678 1.07725,0.31166 1.29404,0.34553 1.80218,0.56911 0.51491,0.2168 0.80624,0.63686 0.29133,0.42006 0.29133,1.04337 0,0.60976 -0.35908,1.15177 -0.35231,0.53523 -1.02305,0.83334 -0.67073,0.29133 -1.51762,0.29133 -1.40245,0 -2.14094,-0.58266 -0.73172,-0.58266 -0.93497,-1.72766 z"
       style="color:#000000;font-style:normal;font-variant:normal;font-weight:normal;font-stretch:normal;font-size:medium;line-height:120.00000477%;font-family:Ubuntu;-inkscape-font-specification:Ubuntu;text-indent:0;text-align:start;text-decoration:none;text-decoration-line:none;text-decoration-style:solid;text-decoration-color:#000000;letter-spacing:0px;word-spacing:0px;text-transform:none;direction:ltr;block-progression:tb;writing-mode:lr-tb;baseline-shift:baseline;text-anchor:start;white-space:normal;clip-rule:nonzero;visibility:visible;isolation:auto;mix-blend-mode:normal;color-interpolation:sRGB;color-interpolation-filters:linearRGB;solid-color:#000000;solid-opacity:1;fill:#333333;fill-opacity:1;fill-rule:nonzero;stroke:none;stroke-width:1px;stroke-linecap:butt;stroke-linejoin:miter;stroke-miterlimit:4;stroke-dasharray:none;stroke-dashoffset:0;stroke-opacity:1;color-rendering:auto;image-rendering:auto;shape-rendering:auto;text-rendering:auto" />
    <path
       id="path4495"
       style="color:#000000;font-style:normal;font-variant:normal;font-weight:normal;font-stretch:normal;font-size:medium;line-height:120.00000477%;font-family:Ubuntu;-inkscape-font-specification:Ubuntu;text-indent:0;text-align:start;text-decoration:none;text-decoration-line:none;text-decoration-style:solid;text-decoration-color:#000000;letter-spacing:0px;word-spacing:0px;text-transform:none;direction:ltr;block-progression:tb;writing-mode:lr-tb;baseline-shift:baseline;text-anchor:start;white-space:normal;clip-rule:nonzero;visibility:visible;isolation:auto;mix-blend-mode:normal;color-interpolation:sRGB;color-interpolation-filters:linearRGB;solid-color:#000000;solid-opacity:1;fill:#333333;fill-opacity:1;fill-rule:nonzero;stroke:none;stroke-width:1px;stroke-linecap:butt;stroke-linejoin:miter;stroke-miterlimit:4;stroke-dasharray:none;stroke-dashoffset:0;stroke-opacity:1;color-rendering:auto;image-rendering:auto;shape-rendering:auto;text-rendering:auto"
       d="m 612.53741,610.79839 4.01765,0 q -0.0813,-0.90787 -0.46071,-1.3618 -0.58266,-0.70462 -1.51085,-0.70462 -0.84012,0 -1.416,0.56234 -0.56911,0.56233 -0.63009,1.50408 z m 4.0041,1.97156 1.26017,0.15582 q -0.2981,1.10435 -1.10434,1.71411 -0.80624,0.60976 -2.05964,0.60976 -1.5786,0 -2.50679,-0.96884 -0.92142,-0.97562 -0.92142,-2.73038 0,-1.81573 0.93497,-2.81845 0.93496,-1.00271 2.42549,-1.00271 1.4431,0 2.35774,0.98239 0.91464,0.98239 0.91464,2.76425 0,0.1084 -0.007,0.3252 l -5.3659,0 q 0.0678,1.18565 0.67074,1.81574 0.60298,0.63008 1.50407,0.63008 0.67074,0 1.145,-0.3523 0.47426,-0.35231 0.75204,-1.12467 z" />
    <path
       inkscape:connector-curvature="0"
       id="path4493"
       d="m 603.89236,615.08704 0,-7.19518 1.09757,0 0,1.02304 q 0.79269,-1.18564 2.28999,-1.18564 0.65041,0 1.19242,0.23713 0.54879,0.23035 0.81979,0.60976 0.27101,0.3794 0.37941,0.90109 0.0677,0.33875 0.0677,1.18564 l 0,4.42416 -1.21952,0 0,-4.37673 q 0,-0.74526 -0.14228,-1.11112 -0.14227,-0.37263 -0.50813,-0.58944 -0.35908,-0.22358 -0.84689,-0.22358 -0.77914,0 -1.34825,0.49459 -0.56234,0.49458 -0.56234,1.87671 l 0,3.92957 -1.21952,0 z"
       style="color:#000000;font-style:normal;font-variant:normal;font-weight:normal;font-stretch:normal;font-size:medium;line-height:120.00000477%;font-family:Ubuntu;-inkscape-font-specification:Ubuntu;text-indent:0;text-align:start;text-decoration:none;text-decoration-line:none;text-decoration-style:solid;text-decoration-color:#000000;letter-spacing:0px;word-spacing:0px;text-transform:none;direction:ltr;block-progression:tb;writing-mode:lr-tb;baseline-shift:baseline;text-anchor:start;white-space:normal;clip-rule:nonzero;visibility:visible;isolation:auto;mix-blend-mode:normal;color-interpolation:sRGB;color-interpolation-filters:linearRGB;solid-color:#000000;solid-opacity:1;fill:#333333;fill-opacity:1;fill-rule:nonzero;stroke:none;stroke-width:1px;stroke-linecap:butt;stroke-linejoin:miter;stroke-miterlimit:4;stroke-dasharray:none;stroke-dashoffset:0;stroke-opacity:1;color-rendering:auto;image-rendering:auto;shape-rendering:auto;text-rendering:auto" />
    <path
       id="path4489"
       style="color:#000000;font-style:normal;font-variant:normal;font-weight:normal;font-stretch:normal;font-size:medium;line-height:120.00000477%;font-family:Ubuntu;-inkscape-font-specification:Ubuntu;text-indent:0;text-align:start;text-decoration:none;text-decoration-line:none;text-decoration-style:solid;text-decoration-color:#000000;letter-spacing:0px;word-spacing:0px;text-transform:none;direction:ltr;block-progression:tb;writing-mode:lr-tb;baseline-shift:baseline;text-anchor:start;white-space:normal;clip-rule:nonzero;visibility:visible;isolation:auto;mix-blend-mode:normal;color-interpolation:sRGB;color-interpolation-filters:linearRGB;solid-color:#000000;solid-opacity:1;fill:#333333;fill-opacity:1;fill-rule:nonzero;stroke:none;stroke-width:1px;stroke-linecap:butt;stroke-linejoin:miter;stroke-miterlimit:4;stroke-dasharray:none;stroke-dashoffset:0;stroke-opacity:1;color-rendering:auto;image-rendering:auto;shape-rendering:auto;text-rendering:auto"
       d="m 596.96819,611.48945 q 0,1.38212 0.60299,2.07318 0.60299,0.68429 1.51763,0.68429 0.90786,0 1.51085,-0.69106 0.60298,-0.69106 0.60298,-2.10706 0,-1.3347 -0.60976,-2.01899 -0.60298,-0.69106 -1.50407,-0.69106 -0.91464,0 -1.51763,0.68429 -0.60299,0.68428 -0.60299,2.06641 z m -1.25339,0 q 0,-1.99866 1.11112,-2.96073 0.92819,-0.79946 2.26289,-0.79946 1.48375,0 2.42549,0.97561 0.94174,0.96885 0.94174,2.68295 0,1.3889 -0.42006,2.18836 -0.41328,0.79269 -1.21274,1.23308 -0.79269,0.44038 -1.73443,0.44038 -1.51085,0 -2.44582,-0.96884 -0.92819,-0.96885 -0.92819,-2.79135 z" />
    <path
       id="path4487"
       style="color:#000000;font-style:normal;font-variant:normal;font-weight:normal;font-stretch:normal;font-size:medium;line-height:120.00000477%;font-family:Ubuntu;-inkscape-font-specification:Ubuntu;text-indent:0;text-align:start;text-decoration:none;text-decoration-line:none;text-decoration-style:solid;text-decoration-color:#000000;letter-spacing:0px;word-spacing:0px;text-transform:none;direction:ltr;block-progression:tb;writing-mode:lr-tb;baseline-shift:baseline;text-anchor:start;white-space:normal;clip-rule:nonzero;visibility:visible;isolation:auto;mix-blend-mode:normal;color-interpolation:sRGB;color-interpolation-filters:linearRGB;solid-color:#000000;solid-opacity:1;fill:#622599;fill-opacity:1;fill-rule:nonzero;stroke:none;stroke-width:1px;stroke-linecap:butt;stroke-linejoin:miter;stroke-miterlimit:4;stroke-dasharray:none;stroke-dashoffset:0;stroke-opacity:1;color-rendering:auto;image-rendering:auto;shape-rendering:auto;text-rendering:auto"
       d="m 593.08606,606.55716 0,-1.40245 1.21952,0 0,1.40245 -1.21952,0 z m 23.2886,-50.42222 q 0,-12.15024 -5.52284,-19.19186 -5.38476,-7.17969 -14.77359,-7.17969 -9.38882,0 -14.91166,7.17969 -5.38477,7.04162 -5.38477,19.19186 0,12.15024 5.38477,19.32993 5.52284,7.04162 14.91166,7.04162 9.38883,0 14.77359,-7.04162 5.52284,-7.17969 5.52284,-19.32993 z m 13.39288,0 q 0,8.5604 -2.48528,15.46395 -2.48527,6.90354 -7.04161,11.8741 -4.41827,4.97055 -10.63147,7.73197 -6.21319,2.62335 -13.53095,2.62335 -7.31776,0 -13.53095,-2.62335 -6.21319,-2.76142 -10.76953,-7.73197 -4.41827,-4.97056 -6.90355,-11.8741 -2.48528,-6.90355 -2.48528,-15.46395 0,-8.42232 2.48528,-15.32587 2.48528,-7.04162 6.90355,-12.01217 4.55634,-4.97056 10.76953,-7.59391 6.21319,-2.76141 13.53095,-2.76141 7.31776,0 13.53095,2.76141 6.2132,2.62335 10.63147,7.59391 4.55634,4.97055 7.04161,12.01217 2.48528,6.90355 2.48528,15.32587 z" />
    <path
       inkscape:connector-curvature="0"
       id="path4485"
       d="m 593.08606,615.08704 0,-7.19518 1.21952,0 0,7.19518 -1.21952,0 z"
       style="color:#000000;font-style:normal;font-variant:normal;font-weight:normal;font-stretch:normal;font-size:medium;line-height:120.00000477%;font-family:Ubuntu;-inkscape-font-specification:Ubuntu;text-indent:0;text-align:start;text-decoration:none;text-decoration-line:none;text-decoration-style:solid;text-decoration-color:#000000;letter-spacing:0px;word-spacing:0px;text-transform:none;direction:ltr;block-progression:tb;writing-mode:lr-tb;baseline-shift:baseline;text-anchor:start;white-space:normal;clip-rule:nonzero;visibility:visible;isolation:auto;mix-blend-mode:normal;color-interpolation:sRGB;color-interpolation-filters:linearRGB;solid-color:#000000;solid-opacity:1;fill:#333333;fill-opacity:1;fill-rule:nonzero;stroke:none;stroke-width:1px;stroke-linecap:butt;stroke-linejoin:miter;stroke-miterlimit:4;stroke-dasharray:none;stroke-dashoffset:0;stroke-opacity:1;color-rendering:auto;image-rendering:auto;shape-rendering:auto;text-rendering:auto" />
    <path
       inkscape:connector-curvature="0"
       id="path4483"
       d="m 590.83673,612.45151 1.19919,0.15583 q -0.19647,1.23985 -1.00949,1.94446 -0.80624,0.69784 -1.98511,0.69784 -1.47697,0 -2.37807,-0.96207 -0.89431,-0.96884 -0.89431,-2.77102 0,-1.16532 0.38618,-2.03931 0.38618,-0.87399 1.1721,-1.3076 0.79268,-0.44038 1.72088,-0.44038 1.17209,0 1.91736,0.59621 0.74526,0.58943 0.95529,1.68023 l -1.18565,0.18292 q -0.16938,-0.72493 -0.60298,-1.09079 -0.42684,-0.36586 -1.0366,-0.36586 -0.92141,0 -1.4973,0.66397 -0.57588,0.65718 -0.57588,2.08673 0,1.44988 0.55556,2.10706 0.55556,0.65719 1.44987,0.65719 0.71816,0 1.1992,-0.44038 0.48103,-0.44038 0.60976,-1.35503 z"
       style="color:#000000;font-style:normal;font-variant:normal;font-weight:normal;font-stretch:normal;font-size:medium;line-height:120.00000477%;font-family:Ubuntu;-inkscape-font-specification:Ubuntu;text-indent:0;text-align:start;text-decoration:none;text-decoration-line:none;text-decoration-style:solid;text-decoration-color:#000000;letter-spacing:0px;word-spacing:0px;text-transform:none;direction:ltr;block-progression:tb;writing-mode:lr-tb;baseline-shift:baseline;text-anchor:start;white-space:normal;clip-rule:nonzero;visibility:visible;isolation:auto;mix-blend-mode:normal;color-interpolation:sRGB;color-interpolation-filters:linearRGB;solid-color:#000000;solid-opacity:1;fill:#333333;fill-opacity:1;fill-rule:nonzero;stroke:none;stroke-width:1px;stroke-linecap:butt;stroke-linejoin:miter;stroke-miterlimit:4;stroke-dasharray:none;stroke-dashoffset:0;stroke-opacity:1;color-rendering:auto;image-rendering:auto;shape-rendering:auto;text-rendering:auto" />
    <path
       id="path4473"
       style="color:#000000;font-style:normal;font-variant:normal;font-weight:normal;font-stretch:normal;font-size:medium;line-height:120.00000477%;font-family:Ubuntu;-inkscape-font-specification:Ubuntu;text-indent:0;text-align:start;text-decoration:none;text-decoration-line:none;text-decoration-style:solid;text-decoration-color:#000000;letter-spacing:0px;word-spacing:0px;text-transform:none;direction:ltr;block-progression:tb;writing-mode:lr-tb;baseline-shift:baseline;text-anchor:start;white-space:normal;clip-rule:nonzero;visibility:visible;isolation:auto;mix-blend-mode:normal;color-interpolation:sRGB;color-interpolation-filters:linearRGB;solid-color:#000000;solid-opacity:1;fill:#333333;fill-opacity:1;fill-rule:nonzero;stroke:none;stroke-width:1px;stroke-linecap:butt;stroke-linejoin:miter;stroke-miterlimit:4;stroke-dasharray:none;stroke-dashoffset:0;stroke-opacity:1;color-rendering:auto;image-rendering:auto;shape-rendering:auto;text-rendering:auto"
       d="m 566.98152,610.79839 4.01765,0 q -0.0813,-0.90787 -0.46071,-1.3618 -0.58266,-0.70462 -1.51085,-0.70462 -0.84012,0 -1.416,0.56234 -0.56911,0.56233 -0.63009,1.50408 z m 4.0041,1.97156 1.26017,0.15582 q -0.29811,1.10435 -1.10435,1.71411 -0.80624,0.60976 -2.05963,0.60976 -1.57861,0 -2.5068,-0.96884 -0.92141,-0.97562 -0.92141,-2.73038 0,-1.81573 0.93496,-2.81845 0.93497,-1.00271 2.4255,-1.00271 1.4431,0 2.35774,0.98239 0.91464,0.98239 0.91464,2.76425 0,0.1084 -0.007,0.3252 l -5.36589,0 q 0.0678,1.18565 0.67074,1.81574 0.60298,0.63008 1.50407,0.63008 0.67074,0 1.145,-0.3523 0.47426,-0.35231 0.75204,-1.12467 z m 2.78458,2.31709 0,-7.19518 1.09757,0 0,1.09079 q 0.42006,-0.76559 0.77236,-1.00949 0.35909,-0.2439 0.78592,-0.2439 0.61653,0 1.2534,0.39295 l -0.42006,1.13145 q -0.44716,-0.26423 -0.89432,-0.26423 -0.39973,0 -0.71816,0.2439 -0.31843,0.23713 -0.45393,0.66396 -0.20326,0.65042 -0.20326,1.42278 l 0,3.76697 -1.21952,0 z m 9.24127,-3.61114 q -0.66396,0.271 -1.99189,0.46071 -0.75204,0.1084 -1.06369,0.2439 -0.31166,0.1355 -0.48103,0.39973 -0.16938,0.25746 -0.16938,0.57589 0,0.48781 0.36585,0.81301 0.37264,0.32521 1.08402,0.32521 0.70462,0 1.2534,-0.30488 0.54879,-0.31166 0.80624,-0.84689 0.19648,-0.41329 0.19648,-1.21952 l 0,-0.44716 z m 0.10163,2.7236 q -0.67752,0.57588 -1.3076,0.81301 -0.62331,0.23713 -1.34148,0.23713 -1.18564,0 -1.8225,-0.57589 -0.63687,-0.58266 -0.63687,-1.48375 0,-0.52846 0.23713,-0.96206 0.24391,-0.44039 0.63009,-0.70462 0.39296,-0.26423 0.88077,-0.39973 0.35908,-0.0949 1.08401,-0.18293 1.47698,-0.17615 2.17482,-0.42005 0.007,-0.25068 0.007,-0.31844 0,-0.74526 -0.34553,-1.05014 -0.46748,-0.41328 -1.3889,-0.41328 -0.86044,0 -1.27372,0.30488 -0.40651,0.2981 -0.60299,1.06369 l -1.19242,-0.1626 q 0.16261,-0.76559 0.53524,-1.23307 0.37263,-0.47426 1.07724,-0.72494 0.70461,-0.25745 1.63281,-0.25745 0.92141,0 1.4973,0.2168 0.57588,0.2168 0.84689,0.54878 0.271,0.32521 0.3794,0.82657 0.061,0.31165 0.061,1.12467 l 0,1.62603 q 0,1.70055 0.0745,2.15449 0.0813,0.44715 0.31165,0.86044 l -1.27372,0 q -0.1897,-0.37941 -0.2439,-0.88754 z" />
    <path
       id="path4465"
       style="color:#000000;font-style:normal;font-variant:normal;font-weight:normal;font-stretch:normal;font-size:medium;line-height:120.00000477%;font-family:Ubuntu;-inkscape-font-specification:Ubuntu;text-indent:0;text-align:start;text-decoration:none;text-decoration-line:none;text-decoration-style:solid;text-decoration-color:#000000;letter-spacing:0px;word-spacing:0px;text-transform:none;direction:ltr;block-progression:tb;writing-mode:lr-tb;baseline-shift:baseline;text-anchor:start;white-space:normal;clip-rule:nonzero;visibility:visible;isolation:auto;mix-blend-mode:normal;color-interpolation:sRGB;color-interpolation-filters:linearRGB;solid-color:#000000;solid-opacity:1;fill:#333333;fill-opacity:1;fill-rule:nonzero;stroke:none;stroke-width:1px;stroke-linecap:butt;stroke-linejoin:miter;stroke-miterlimit:4;stroke-dasharray:none;stroke-dashoffset:0;stroke-opacity:1;color-rendering:auto;image-rendering:auto;shape-rendering:auto;text-rendering:auto"
       d="m 548.66159,610.2699 q 0,1.7954 0.96207,2.832 0.96884,1.02981 2.42549,1.02981 1.48376,0 2.43905,-1.04336 0.96206,-1.04337 0.96206,-2.96073 0,-1.21275 -0.41328,-2.11384 -0.4065,-0.90787 -1.19919,-1.40245 -0.78592,-0.50136 -1.76831,-0.50136 -1.39567,0 -2.40517,0.96207 -1.00272,0.95529 -1.00272,3.19786 z m -1.35502,-0.0203 q 0,-2.47292 1.32792,-3.86859 1.32793,-1.40245 3.42821,-1.40245 1.37535,0 2.4797,0.65718 1.10434,0.65719 1.68023,1.83606 0.58266,1.1721 0.58266,2.66262 0,1.51086 -0.60976,2.70328 -0.60976,1.19242 -1.72766,1.80895 -1.11789,0.60976 -2.41194,0.60976 -1.40245,0 -2.50679,-0.67751 -1.10435,-0.67751 -1.67346,-1.84961 -0.56911,-1.17209 -0.56911,-2.47969 z m 12.13424,1.2805 q 0,1.3889 0.56234,2.05286 0.56233,0.66396 1.3618,0.66396 0.81301,0 1.3889,-0.68429 0.58266,-0.69106 0.58266,-2.13416 0,-1.37535 -0.56911,-2.05963 -0.56234,-0.68429 -1.34825,-0.68429 -0.77914,0 -1.38212,0.73171 -0.59622,0.72494 -0.59622,2.11384 z m -1.10434,6.31441 0,-9.95265 1.11112,0 0,0.93497 q 0.39296,-0.54879 0.88754,-0.81979 0.49458,-0.27778 1.1992,-0.27778 0.92141,0 1.62603,0.47425 0.70461,0.47426 1.06369,1.34148 0.35908,0.86044 0.35908,1.89026 0,1.10434 -0.39973,1.99188 -0.39296,0.88077 -1.15177,1.35503 -0.75204,0.46748 -1.58538,0.46748 -0.60976,0 -1.09757,-0.25746 -0.48103,-0.25745 -0.79269,-0.65041 l 0,3.50274 -1.21952,0 z" />
    <path
       inkscape:connector-curvature="0"
       id="path4463"
       d="m 536.71029,617.85806 -0.1355,-1.145 q 0.39973,0.10841 0.69784,0.10841 0.40651,0 0.65041,-0.13551 0.2439,-0.1355 0.39973,-0.3794 0.11518,-0.18293 0.37263,-0.90787 0.0339,-0.10163 0.10841,-0.2981 l -2.73038,-7.20873 1.31438,0 1.4973,4.1667 q 0.29133,0.79269 0.52168,1.66668 0.21003,-0.84012 0.50136,-1.63958 l 1.53795,-4.1938 1.21952,0 -2.73714,7.31713 q -0.44039,1.18564 -0.68429,1.6328 -0.32521,0.60299 -0.74526,0.88077 -0.42006,0.28455 -1.00272,0.28455 -0.35231,0 -0.78592,-0.14905 z"
       style="color:#000000;font-style:normal;font-variant:normal;font-weight:normal;font-stretch:normal;font-size:medium;line-height:120.00000477%;font-family:Ubuntu;-inkscape-font-specification:Ubuntu;text-indent:0;text-align:start;text-decoration:none;text-decoration-line:none;text-decoration-style:solid;text-decoration-color:#000000;letter-spacing:0px;word-spacing:0px;text-transform:none;direction:ltr;block-progression:tb;writing-mode:lr-tb;baseline-shift:baseline;text-anchor:start;white-space:normal;clip-rule:nonzero;visibility:visible;isolation:auto;mix-blend-mode:normal;color-interpolation:sRGB;color-interpolation-filters:linearRGB;solid-color:#000000;solid-opacity:1;fill:#333333;fill-opacity:1;fill-rule:nonzero;stroke:none;stroke-width:1px;stroke-linecap:butt;stroke-linejoin:miter;stroke-miterlimit:4;stroke-dasharray:none;stroke-dashoffset:0;stroke-opacity:1;color-rendering:auto;image-rendering:auto;shape-rendering:auto;text-rendering:auto" />
    <path
       id="path4455"
       style="color:#000000;font-style:normal;font-variant:normal;font-weight:normal;font-stretch:normal;font-size:medium;line-height:120.00000477%;font-family:Ubuntu;-inkscape-font-specification:Ubuntu;text-indent:0;text-align:start;text-decoration:none;text-decoration-line:none;text-decoration-style:solid;text-decoration-color:#000000;letter-spacing:0px;word-spacing:0px;text-transform:none;direction:ltr;block-progression:tb;writing-mode:lr-tb;baseline-shift:baseline;text-anchor:start;white-space:normal;clip-rule:nonzero;visibility:visible;isolation:auto;mix-blend-mode:normal;color-interpolation:sRGB;color-interpolation-filters:linearRGB;solid-color:#000000;solid-opacity:1;fill:#333333;fill-opacity:1;fill-rule:nonzero;stroke:none;stroke-width:1px;stroke-linecap:butt;stroke-linejoin:miter;stroke-miterlimit:4;stroke-dasharray:none;stroke-dashoffset:0;stroke-opacity:1;color-rendering:auto;image-rendering:auto;shape-rendering:auto;text-rendering:auto"
       d="m 517.4554,615.08704 0,-7.19518 1.09757,0 0,1.09079 q 0.42005,-0.76559 0.77236,-1.00949 0.35908,-0.2439 0.78591,-0.2439 0.61654,0 1.2534,0.39295 l -0.42006,1.13145 q -0.44715,-0.26423 -0.89431,-0.26423 -0.39973,0 -0.71816,0.2439 -0.31844,0.23713 -0.45394,0.66396 -0.20325,0.65042 -0.20325,1.42278 l 0,3.76697 -1.21952,0 z m 5.4472,-3.59759 q 0,1.38212 0.60298,2.07318 0.60299,0.68429 1.51763,0.68429 0.90787,0 1.51085,-0.69106 0.60299,-0.69106 0.60299,-2.10706 0,-1.3347 -0.60976,-2.01899 -0.60299,-0.69106 -1.50408,-0.69106 -0.91464,0 -1.51763,0.68429 -0.60298,0.68428 -0.60298,2.06641 z m -1.2534,0 q 0,-1.99866 1.11112,-2.96073 0.92819,-0.79946 2.26289,-0.79946 1.48375,0 2.42549,0.97561 0.94174,0.96885 0.94174,2.68295 0,1.3889 -0.42005,2.18836 -0.41329,0.79269 -1.21275,1.23308 -0.79269,0.44038 -1.73443,0.44038 -1.51085,0 -2.44582,-0.96884 -0.92819,-0.96885 -0.92819,-2.79135 z m 8.15047,3.59759 0,-9.93233 1.21952,0 0,9.93233 -1.21952,0 z" />
    <path
       inkscape:connector-curvature="0"
       id="path4453"
       d="m 516.2833,613.99624 0.17616,1.07725 q -0.51491,0.1084 -0.92142,0.1084 -0.66396,0 -1.02982,-0.21003 -0.36586,-0.21003 -0.51491,-0.54879 -0.14905,-0.34553 -0.14905,-1.4431 l 0,-4.13959 -0.89432,0 0,-0.94852 0.89432,0 0,-1.78186 1.21275,-0.73171 0,2.51357 1.22629,0 0,0.94852 -1.22629,0 0,4.20735 q 0,0.52168 0.061,0.67073 0.0678,0.14905 0.21003,0.23713 0.14905,0.0881 0.42006,0.0881 0.20325,0 0.53523,-0.0474 z"
       style="color:#000000;font-style:normal;font-variant:normal;font-weight:normal;font-stretch:normal;font-size:medium;line-height:120.00000477%;font-family:Ubuntu;-inkscape-font-specification:Ubuntu;text-indent:0;text-align:start;text-decoration:none;text-decoration-line:none;text-decoration-style:solid;text-decoration-color:#000000;letter-spacing:0px;word-spacing:0px;text-transform:none;direction:ltr;block-progression:tb;writing-mode:lr-tb;baseline-shift:baseline;text-anchor:start;white-space:normal;clip-rule:nonzero;visibility:visible;isolation:auto;mix-blend-mode:normal;color-interpolation:sRGB;color-interpolation-filters:linearRGB;solid-color:#000000;solid-opacity:1;fill:#333333;fill-opacity:1;fill-rule:nonzero;stroke:none;stroke-width:1px;stroke-linecap:butt;stroke-linejoin:miter;stroke-miterlimit:4;stroke-dasharray:none;stroke-dashoffset:0;stroke-opacity:1;color-rendering:auto;image-rendering:auto;shape-rendering:auto;text-rendering:auto" />
    <path
       inkscape:connector-curvature="0"
       id="path4451"
       d="m 505.89705,615.08704 0,-7.19518 1.09757,0 0,1.02304 q 0.79269,-1.18564 2.28999,-1.18564 0.65041,0 1.19242,0.23713 0.54878,0.23035 0.81979,0.60976 0.271,0.3794 0.3794,0.90109 0.0678,0.33875 0.0678,1.18564 l 0,4.42416 -1.21953,0 0,-4.37673 q 0,-0.74526 -0.14227,-1.11112 -0.14228,-0.37263 -0.50814,-0.58944 -0.35908,-0.22358 -0.84689,-0.22358 -0.77914,0 -1.34825,0.49459 -0.56233,0.49458 -0.56233,1.87671 l 0,3.92957 -1.21952,0 z"
       style="color:#000000;font-style:normal;font-variant:normal;font-weight:normal;font-stretch:normal;font-size:medium;line-height:120.00000477%;font-family:Ubuntu;-inkscape-font-specification:Ubuntu;text-indent:0;text-align:start;text-decoration:none;text-decoration-line:none;text-decoration-style:solid;text-decoration-color:#000000;letter-spacing:0px;word-spacing:0px;text-transform:none;direction:ltr;block-progression:tb;writing-mode:lr-tb;baseline-shift:baseline;text-anchor:start;white-space:normal;clip-rule:nonzero;visibility:visible;isolation:auto;mix-blend-mode:normal;color-interpolation:sRGB;color-interpolation-filters:linearRGB;solid-color:#000000;solid-opacity:1;fill:#333333;fill-opacity:1;fill-rule:nonzero;stroke:none;stroke-width:1px;stroke-linecap:butt;stroke-linejoin:miter;stroke-miterlimit:4;stroke-dasharray:none;stroke-dashoffset:0;stroke-opacity:1;color-rendering:auto;image-rendering:auto;shape-rendering:auto;text-rendering:auto" />
    <path
       id="path4445"
       style="color:#000000;font-style:normal;font-variant:normal;font-weight:normal;font-stretch:normal;font-size:medium;line-height:120.00000477%;font-family:Ubuntu;-inkscape-font-specification:Ubuntu;text-indent:0;text-align:start;text-decoration:none;text-decoration-line:none;text-decoration-style:solid;text-decoration-color:#000000;letter-spacing:0px;word-spacing:0px;text-transform:none;direction:ltr;block-progression:tb;writing-mode:lr-tb;baseline-shift:baseline;text-anchor:start;white-space:normal;clip-rule:nonzero;visibility:visible;isolation:auto;mix-blend-mode:normal;color-interpolation:sRGB;color-interpolation-filters:linearRGB;solid-color:#000000;solid-opacity:1;fill:#333333;fill-opacity:1;fill-rule:nonzero;stroke:none;stroke-width:1px;stroke-linecap:butt;stroke-linejoin:miter;stroke-miterlimit:4;stroke-dasharray:none;stroke-dashoffset:0;stroke-opacity:1;color-rendering:auto;image-rendering:auto;shape-rendering:auto;text-rendering:auto"
       d="m 495.38883,611.60462 1.31437,0.33199 q -0.41328,1.61925 -1.49053,2.47291 -1.07047,0.84689 -2.62197,0.84689 -1.6057,0 -2.61519,-0.65041 -1.00272,-0.65718 -1.53118,-1.89703 -0.52169,-1.23985 -0.52169,-2.66262 0,-1.55151 0.58944,-2.70328 0.59621,-1.15854 1.68701,-1.75475 1.09756,-0.60299 2.41194,-0.60299 1.49052,0 2.50679,0.75882 1.01627,0.75881 1.416,2.13416 l -1.29405,0.30488 q -0.34553,-1.08402 -1.00271,-1.5786 -0.65719,-0.49459 -1.65313,-0.49459 -1.145,0 -1.91736,0.54879 -0.76559,0.54878 -1.07725,1.47697 -0.31165,0.92142 -0.31165,1.90381 0,1.26695 0.36586,2.21547 0.37263,0.94174 1.15177,1.40922 0.77913,0.46748 1.687,0.46748 1.10435,0 1.86993,-0.63686 0.76559,-0.63686 1.0366,-1.89026 z m 3.58403,-0.11517 q 0,1.38212 0.60299,2.07318 0.60299,0.68429 1.51763,0.68429 0.90786,0 1.51085,-0.69106 0.60298,-0.69106 0.60298,-2.10706 0,-1.3347 -0.60976,-2.01899 -0.60298,-0.69106 -1.50407,-0.69106 -0.91464,0 -1.51763,0.68429 -0.60299,0.68428 -0.60299,2.06641 z m -1.25339,0 q 0,-1.99866 1.11112,-2.96073 0.92819,-0.79946 2.26289,-0.79946 1.48375,0 2.42549,0.97561 0.94174,0.96885 0.94174,2.68295 0,1.3889 -0.42006,2.18836 -0.41328,0.79269 -1.21274,1.23308 -0.79269,0.44038 -1.73443,0.44038 -1.51086,0 -2.44582,-0.96884 -0.92819,-0.96885 -0.92819,-2.79135 z" />
    <path
       id="path4437"
       style="color:#000000;font-style:normal;font-variant:normal;font-weight:normal;font-stretch:normal;font-size:medium;line-height:120.00000477%;font-family:Ubuntu;-inkscape-font-specification:Ubuntu;text-indent:0;text-align:start;text-decoration:none;text-decoration-line:none;text-decoration-style:solid;text-decoration-color:#000000;letter-spacing:0px;word-spacing:0px;text-transform:none;direction:ltr;block-progression:tb;writing-mode:lr-tb;baseline-shift:baseline;text-anchor:start;white-space:normal;clip-rule:nonzero;visibility:visible;isolation:auto;mix-blend-mode:normal;color-interpolation:sRGB;color-interpolation-filters:linearRGB;solid-color:#000000;solid-opacity:1;fill:#333333;fill-opacity:1;fill-rule:nonzero;stroke:none;stroke-width:1px;stroke-linecap:butt;stroke-linejoin:miter;stroke-miterlimit:4;stroke-dasharray:none;stroke-dashoffset:0;stroke-opacity:1;color-rendering:auto;image-rendering:auto;shape-rendering:auto;text-rendering:auto"
       d="m 470.75449,613.99624 0.17616,1.07725 q -0.51491,0.1084 -0.92142,0.1084 -0.66396,0 -1.02982,-0.21003 -0.36585,-0.21003 -0.51491,-0.54879 -0.14905,-0.34553 -0.14905,-1.4431 l 0,-4.13959 -0.89431,0 0,-0.94852 0.89431,0 0,-1.78186 1.21275,-0.73171 0,2.51357 1.22629,0 0,0.94852 -1.22629,0 0,4.20735 q 0,0.52168 0.061,0.67073 0.0677,0.14905 0.21003,0.23713 0.14905,0.0881 0.42006,0.0881 0.20325,0 0.53523,-0.0474 z m 1.1721,1.0908 0,-7.19518 1.09757,0 0,1.09079 q 0.42006,-0.76559 0.77236,-1.00949 0.35908,-0.2439 0.78592,-0.2439 0.61653,0 1.25339,0.39295 l -0.42005,1.13145 q -0.44716,-0.26423 -0.89432,-0.26423 -0.39973,0 -0.71816,0.2439 -0.31843,0.23713 -0.45394,0.66396 -0.20325,0.65042 -0.20325,1.42278 l 0,3.76697 -1.21952,0 z m 5.4472,-3.59759 q 0,1.38212 0.60298,2.07318 0.60299,0.68429 1.51763,0.68429 0.90787,0 1.51085,-0.69106 0.60299,-0.69106 0.60299,-2.10706 0,-1.3347 -0.60976,-2.01899 -0.60299,-0.69106 -1.50408,-0.69106 -0.91464,0 -1.51763,0.68429 -0.60298,0.68428 -0.60298,2.06641 z m -1.2534,0 q 0,-1.99866 1.11112,-2.96073 0.92819,-0.79946 2.26289,-0.79946 1.48375,0 2.42549,0.97561 0.94175,0.96885 0.94175,2.68295 0,1.3889 -0.42006,2.18836 -0.41328,0.79269 -1.21275,1.23308 -0.79269,0.44038 -1.73443,0.44038 -1.51085,0 -2.44582,-0.96884 -0.92819,-0.96885 -0.92819,-2.79135 z" />
    <path
       inkscape:connector-curvature="0"
       id="path4435"
       d="m 460.66633,612.93932 1.20598,-0.1897 q 0.10162,0.72494 0.56233,1.11112 0.46748,0.38618 1.30082,0.38618 0.84012,0 1.24663,-0.33875 0.4065,-0.34554 0.4065,-0.80624 0,-0.41329 -0.35908,-0.65042 -0.25068,-0.1626 -1.24662,-0.41328 -1.34147,-0.33875 -1.86316,-0.58266 -0.51491,-0.25068 -0.78591,-0.68429 -0.26423,-0.44038 -0.26423,-0.96884 0,-0.48103 0.2168,-0.88754 0.22358,-0.41328 0.60299,-0.68429 0.28455,-0.21002 0.77236,-0.3523 0.49458,-0.14905 1.05692,-0.14905 0.84689,0 1.48375,0.2439 0.64364,0.2439 0.94852,0.66396 0.30488,0.41328 0.42006,1.11112 l -1.19243,0.1626 q -0.0813,-0.55556 -0.47425,-0.86721 -0.38619,-0.31166 -1.09757,-0.31166 -0.84012,0 -1.1992,0.27778 -0.35908,0.27778 -0.35908,0.65042 0,0.23712 0.14905,0.42683 0.14905,0.19648 0.46748,0.3252 0.18293,0.0678 1.07725,0.31166 1.29405,0.34553 1.80218,0.56911 0.51491,0.2168 0.80624,0.63686 0.29133,0.42006 0.29133,1.04337 0,0.60976 -0.35908,1.15177 -0.35231,0.53523 -1.02304,0.83334 -0.67074,0.29133 -1.51763,0.29133 -1.40245,0 -2.14094,-0.58266 -0.73171,-0.58266 -0.93497,-1.72766 z"
       style="color:#000000;font-style:normal;font-variant:normal;font-weight:normal;font-stretch:normal;font-size:medium;line-height:120.00000477%;font-family:Ubuntu;-inkscape-font-specification:Ubuntu;text-indent:0;text-align:start;text-decoration:none;text-decoration-line:none;text-decoration-style:solid;text-decoration-color:#000000;letter-spacing:0px;word-spacing:0px;text-transform:none;direction:ltr;block-progression:tb;writing-mode:lr-tb;baseline-shift:baseline;text-anchor:start;white-space:normal;clip-rule:nonzero;visibility:visible;isolation:auto;mix-blend-mode:normal;color-interpolation:sRGB;color-interpolation-filters:linearRGB;solid-color:#000000;solid-opacity:1;fill:#333333;fill-opacity:1;fill-rule:nonzero;stroke:none;stroke-width:1px;stroke-linecap:butt;stroke-linejoin:miter;stroke-miterlimit:4;stroke-dasharray:none;stroke-dashoffset:0;stroke-opacity:1;color-rendering:auto;image-rendering:auto;shape-rendering:auto;text-rendering:auto" />
    <path
       id="path4419"
       style="color:#000000;font-style:normal;font-variant:normal;font-weight:normal;font-stretch:normal;font-size:medium;line-height:120.00000477%;font-family:Ubuntu;-inkscape-font-specification:Ubuntu;text-indent:0;text-align:start;text-decoration:none;text-decoration-line:none;text-decoration-style:solid;text-decoration-color:#000000;letter-spacing:0px;word-spacing:0px;text-transform:none;direction:ltr;block-progression:tb;writing-mode:lr-tb;baseline-shift:baseline;text-anchor:start;white-space:normal;clip-rule:nonzero;visibility:visible;isolation:auto;mix-blend-mode:normal;color-interpolation:sRGB;color-interpolation-filters:linearRGB;solid-color:#000000;solid-opacity:1;fill:#333333;fill-opacity:1;fill-rule:nonzero;stroke:none;stroke-width:1px;stroke-linecap:butt;stroke-linejoin:miter;stroke-miterlimit:4;stroke-dasharray:none;stroke-dashoffset:0;stroke-opacity:1;color-rendering:auto;image-rendering:auto;shape-rendering:auto;text-rendering:auto"
       d="m 434.08077,609.53821 2.82523,0 q 0.90109,0 1.40922,-0.18293 0.50814,-0.1897 0.77237,-0.59621 0.26423,-0.41328 0.26423,-0.89431 0,-0.70461 -0.51491,-1.15855 -0.50814,-0.45393 -1.61248,-0.45393 l -3.14366,0 0,3.28593 z m -1.31437,5.54883 0,-9.93233 4.40383,0 q 1.32792,0 2.01898,0.27101 0.69107,0.26422 1.10435,0.94174 0.41328,0.67751 0.41328,1.4973 0,1.05692 -0.68429,1.78185 -0.68428,0.72494 -2.11383,0.92142 0.52168,0.25068 0.79269,0.49458 0.57588,0.52846 1.09079,1.32115 l 1.72765,2.70328 -1.65312,0 -1.31438,-2.06642 q -0.57588,-0.89431 -0.94851,-1.36857 -0.37264,-0.47426 -0.67074,-0.66396 -0.29133,-0.1897 -0.59621,-0.26423 -0.22358,-0.0474 -0.73171,-0.0474 l -1.52441,0 0,4.41061 -1.31437,0 z m 10.77245,-4.28865 4.01764,0 q -0.0813,-0.90787 -0.46071,-1.3618 -0.58266,-0.70462 -1.51085,-0.70462 -0.84011,0 -1.416,0.56234 -0.56911,0.56233 -0.63008,1.50408 z m 4.00409,1.97156 1.26017,0.15582 q -0.2981,1.10435 -1.10434,1.71411 -0.80624,0.60976 -2.05964,0.60976 -1.5786,0 -2.50679,-0.96884 -0.92142,-0.97562 -0.92142,-2.73038 0,-1.81573 0.93497,-2.81845 0.93497,-1.00271 2.42549,-1.00271 1.4431,0 2.35774,0.98239 0.91465,0.98239 0.91465,2.76425 0,0.1084 -0.007,0.3252 l -5.36589,0 q 0.0678,1.18565 0.67073,1.81574 0.60299,0.63008 1.50408,0.63008 0.67074,0 1.14499,-0.3523 0.47426,-0.35231 0.75204,-1.12467 z m 3.58404,-1.40923 q 0,1.416 0.56233,2.06641 0.56234,0.65041 1.40923,0.65041 0.84011,0 1.40922,-0.64363 0.56911,-0.65041 0.56911,-2.03254 0,-1.32115 -0.58943,-1.99188 -0.58266,-0.67074 -1.40923,-0.67074 -0.81301,0 -1.38212,0.66396 -0.56911,0.65719 -0.56911,1.95801 z m -1.0095,4.32253 1.18565,0.17615 q 0.0745,0.54878 0.41328,0.79946 0.45394,0.33876 1.23985,0.33876 0.84689,0 1.3076,-0.33876 0.46071,-0.33875 0.62331,-0.94851 0.0948,-0.37263 0.0881,-1.56506 -0.79947,0.94175 -1.99189,0.94175 -1.48375,0 -2.29677,-1.07047 -0.81301,-1.07047 -0.81301,-2.56777 0,-1.02982 0.37263,-1.89704 0.37263,-0.87399 1.07725,-1.34825 0.71138,-0.47425 1.66668,-0.47425 1.27372,0 2.10028,1.02981 l 0,-0.86721 1.12467,0 0,6.21956 q 0,1.68023 -0.34553,2.37807 -0.33875,0.70461 -1.08402,1.11112 -0.73849,0.4065 -1.82251,0.4065 -1.28727,0 -2.07996,-0.58266 -0.79269,-0.57588 -0.76559,-1.7412 z m 7.95399,-0.59621 0,-7.19518 1.21952,0 0,7.19518 -1.21952,0 z m 0,-8.52988 0,-1.40245 1.21952,0 0,1.40245 -1.21952,0 z" />
    <path
       id="path4411"
       style="color:#000000;font-style:normal;font-variant:normal;font-weight:normal;font-stretch:normal;font-size:medium;line-height:120.00000477%;font-family:Ubuntu;-inkscape-font-specification:Ubuntu;text-indent:0;text-align:start;text-decoration:none;text-decoration-line:none;text-decoration-style:solid;text-decoration-color:#000000;letter-spacing:0px;word-spacing:0px;text-transform:none;direction:ltr;block-progression:tb;writing-mode:lr-tb;baseline-shift:baseline;text-anchor:start;white-space:normal;clip-rule:nonzero;visibility:visible;isolation:auto;mix-blend-mode:normal;color-interpolation:sRGB;color-interpolation-filters:linearRGB;solid-color:#000000;solid-opacity:1;fill:#333333;fill-opacity:1;fill-rule:nonzero;stroke:none;stroke-width:1px;stroke-linecap:butt;stroke-linejoin:miter;stroke-miterlimit:4;stroke-dasharray:none;stroke-dashoffset:0;stroke-opacity:1;color-rendering:auto;image-rendering:auto;shape-rendering:auto;text-rendering:auto"
       d="m 414.10772,611.49622 q 0,1.38213 0.58266,2.06641 0.58266,0.68429 1.37535,0.68429 0.79947,0 1.35503,-0.65041 0.56233,-0.65719 0.56233,-1.99866 0,-1.47698 -0.56911,-2.16804 -0.56911,-0.69106 -1.40245,-0.69106 -0.81301,0 -1.3618,0.66396 -0.54201,0.66396 -0.54201,2.09351 z m 3.85504,3.59082 0,-0.90787 q -0.68428,1.07047 -2.01221,1.07047 -0.86044,0 -1.58537,-0.47426 -0.71817,-0.47426 -1.1179,-1.32115 -0.39296,-0.85366 -0.39296,-1.95801 0,-1.07724 0.35909,-1.95123 0.35908,-0.88077 1.07724,-1.34825 0.71816,-0.46748 1.6057,-0.46748 0.65041,0 1.15855,0.27778 0.50813,0.271 0.82656,0.71138 l 0,-3.56371 1.21275,0 0,9.93233 -1.13145,0 z m 3.977,-4.28865 4.01764,0 q -0.0813,-0.90787 -0.46071,-1.3618 -0.58266,-0.70462 -1.51085,-0.70462 -0.84011,0 -1.416,0.56234 -0.56911,0.56233 -0.63008,1.50408 z m 4.00409,1.97156 1.26017,0.15582 q -0.2981,1.10435 -1.10434,1.71411 -0.80624,0.60976 -2.05964,0.60976 -1.5786,0 -2.50679,-0.96884 -0.92142,-0.97562 -0.92142,-2.73038 0,-1.81573 0.93497,-2.81845 0.93497,-1.00271 2.42549,-1.00271 1.4431,0 2.35774,0.98239 0.91465,0.98239 0.91465,2.76425 0,0.1084 -0.007,0.3252 l -5.36589,0 q 0.0677,1.18565 0.67073,1.81574 0.60299,0.63008 1.50408,0.63008 0.67074,0 1.14499,-0.3523 0.47426,-0.35231 0.75204,-1.12467 z" />
    <path
       id="path4399"
       style="color:#000000;font-style:normal;font-variant:normal;font-weight:normal;font-stretch:normal;font-size:medium;line-height:120.00000477%;font-family:Ubuntu;-inkscape-font-specification:Ubuntu;text-indent:0;text-align:start;text-decoration:none;text-decoration-line:none;text-decoration-style:solid;text-decoration-color:#000000;letter-spacing:0px;word-spacing:0px;text-transform:none;direction:ltr;block-progression:tb;writing-mode:lr-tb;baseline-shift:baseline;text-anchor:start;white-space:normal;clip-rule:nonzero;visibility:visible;isolation:auto;mix-blend-mode:normal;color-interpolation:sRGB;color-interpolation-filters:linearRGB;solid-color:#000000;solid-opacity:1;fill:#333333;fill-opacity:1;fill-rule:nonzero;stroke:none;stroke-width:1px;stroke-linecap:butt;stroke-linejoin:miter;stroke-miterlimit:4;stroke-dasharray:none;stroke-dashoffset:0;stroke-opacity:1;color-rendering:auto;image-rendering:auto;shape-rendering:auto;text-rendering:auto"
       d="m 390.86906,611.4759 q -0.66396,0.271 -1.99189,0.46071 -0.75204,0.1084 -1.06369,0.2439 -0.31166,0.1355 -0.48103,0.39973 -0.16938,0.25746 -0.16938,0.57589 0,0.48781 0.36585,0.81301 0.37264,0.32521 1.08402,0.32521 0.70462,0 1.2534,-0.30488 0.54878,-0.31166 0.80624,-0.84689 0.19648,-0.41329 0.19648,-1.21952 l 0,-0.44716 z m 0.10162,2.7236 q -0.67751,0.57588 -1.30759,0.81301 -0.62331,0.23713 -1.34148,0.23713 -1.18564,0 -1.8225,-0.57589 -0.63687,-0.58266 -0.63687,-1.48375 0,-0.52846 0.23713,-0.96206 0.24391,-0.44039 0.63009,-0.70462 0.39296,-0.26423 0.88077,-0.39973 0.35908,-0.0949 1.08401,-0.18293 1.47698,-0.17615 2.17482,-0.42005 0.007,-0.25068 0.007,-0.31844 0,-0.74526 -0.34553,-1.05014 -0.46748,-0.41328 -1.3889,-0.41328 -0.86044,0 -1.27372,0.30488 -0.40651,0.2981 -0.60299,1.06369 l -1.19242,-0.1626 q 0.16261,-0.76559 0.53524,-1.23307 0.37263,-0.47426 1.07724,-0.72494 0.70461,-0.25745 1.63281,-0.25745 0.92141,0 1.4973,0.2168 0.57588,0.2168 0.84689,0.54878 0.271,0.32521 0.3794,0.82657 0.061,0.31165 0.061,1.12467 l 0,1.62603 q 0,1.70055 0.0745,2.15449 0.0813,0.44715 0.31165,0.86044 l -1.27372,0 q -0.1897,-0.37941 -0.24391,-0.88754 z m 3.84149,-2.70328 q 0,1.38213 0.58266,2.06641 0.58266,0.68429 1.37535,0.68429 0.79947,0 1.35503,-0.65041 0.56233,-0.65719 0.56233,-1.99866 0,-1.47698 -0.56911,-2.16804 -0.56911,-0.69106 -1.40245,-0.69106 -0.81301,0 -1.3618,0.66396 -0.54201,0.66396 -0.54201,2.09351 z m 3.85505,3.59082 0,-0.90787 q -0.68429,1.07047 -2.01221,1.07047 -0.86044,0 -1.58538,-0.47426 -0.71816,-0.47426 -1.1179,-1.32115 -0.39295,-0.85366 -0.39295,-1.95801 0,-1.07724 0.35908,-1.95123 0.35908,-0.88077 1.07724,-1.34825 0.71816,-0.46748 1.60571,-0.46748 0.65041,0 1.15854,0.27778 0.50814,0.271 0.82657,0.71138 l 0,-3.56371 1.21274,0 0,9.93233 -1.13144,0 z m 7.64911,-3.61114 q -0.66396,0.271 -1.99188,0.46071 -0.75204,0.1084 -1.0637,0.2439 -0.31165,0.1355 -0.48103,0.39973 -0.16938,0.25746 -0.16938,0.57589 0,0.48781 0.36586,0.81301 0.37263,0.32521 1.08402,0.32521 0.70461,0 1.25339,-0.30488 0.54879,-0.31166 0.80624,-0.84689 0.19648,-0.41329 0.19648,-1.21952 l 0,-0.44716 z m 0.10163,2.7236 q -0.67751,0.57588 -1.3076,0.81301 -0.62331,0.23713 -1.34147,0.23713 -1.18565,0 -1.82251,-0.57589 -0.63686,-0.58266 -0.63686,-1.48375 0,-0.52846 0.23713,-0.96206 0.2439,-0.44039 0.63008,-0.70462 0.39296,-0.26423 0.88077,-0.39973 0.35908,-0.0949 1.08402,-0.18293 1.47697,-0.17615 2.17481,-0.42005 0.007,-0.25068 0.007,-0.31844 0,-0.74526 -0.34553,-1.05014 -0.46749,-0.41328 -1.3889,-0.41328 -0.86044,0 -1.27373,0.30488 -0.4065,0.2981 -0.60298,1.06369 l -1.19242,-0.1626 q 0.1626,-0.76559 0.53523,-1.23307 0.37263,-0.47426 1.07724,-0.72494 0.70462,-0.25745 1.63281,-0.25745 0.92142,0 1.4973,0.2168 0.57589,0.2168 0.84689,0.54878 0.27101,0.32521 0.37941,0.82657 0.061,0.31165 0.061,1.12467 l 0,1.62603 q 0,1.70055 0.0745,2.15449 0.0813,0.44715 0.31165,0.86044 l -1.27372,0 q -0.1897,-0.37941 -0.2439,-0.88754 z" />
    <path
       inkscape:connector-curvature="0"
       id="path4397"
       d="m 384.03296,612.45151 1.1992,0.15583 q -0.19648,1.23985 -1.00949,1.94446 -0.80624,0.69784 -1.98511,0.69784 -1.47698,0 -2.37807,-0.96207 -0.89432,-0.96884 -0.89432,-2.77102 0,-1.16532 0.38619,-2.03931 0.38618,-0.87399 1.17209,-1.3076 0.79269,-0.44038 1.72088,-0.44038 1.1721,0 1.91736,0.59621 0.74526,0.58943 0.95529,1.68023 l -1.18564,0.18292 q -0.16938,-0.72493 -0.60299,-1.09079 -0.42683,-0.36586 -1.03659,-0.36586 -0.92142,0 -1.4973,0.66397 -0.57589,0.65718 -0.57589,2.08673 0,1.44988 0.55556,2.10706 0.55556,0.65719 1.44988,0.65719 0.71816,0 1.19919,-0.44038 0.48104,-0.44038 0.60976,-1.35503 z"
       style="color:#000000;font-style:normal;font-variant:normal;font-weight:normal;font-stretch:normal;font-size:medium;line-height:120.00000477%;font-family:Ubuntu;-inkscape-font-specification:Ubuntu;text-indent:0;text-align:start;text-decoration:none;text-decoration-line:none;text-decoration-style:solid;text-decoration-color:#000000;letter-spacing:0px;word-spacing:0px;text-transform:none;direction:ltr;block-progression:tb;writing-mode:lr-tb;baseline-shift:baseline;text-anchor:start;white-space:normal;clip-rule:nonzero;visibility:visible;isolation:auto;mix-blend-mode:normal;color-interpolation:sRGB;color-interpolation-filters:linearRGB;solid-color:#000000;solid-opacity:1;fill:#333333;fill-opacity:1;fill-rule:nonzero;stroke:none;stroke-width:1px;stroke-linecap:butt;stroke-linejoin:miter;stroke-miterlimit:4;stroke-dasharray:none;stroke-dashoffset:0;stroke-opacity:1;color-rendering:auto;image-rendering:auto;shape-rendering:auto;text-rendering:auto" />
    <path
       inkscape:connector-curvature="0"
       id="path4395"
       d="m 376.25513,606.55716 0,-1.40245 1.21952,0 0,1.40245 -1.21952,0 z"
       style="color:#000000;font-style:normal;font-variant:normal;font-weight:normal;font-stretch:normal;font-size:medium;line-height:120.00000477%;font-family:Ubuntu;-inkscape-font-specification:Ubuntu;text-indent:0;text-align:start;text-decoration:none;text-decoration-line:none;text-decoration-style:solid;text-decoration-color:#000000;letter-spacing:0px;word-spacing:0px;text-transform:none;direction:ltr;block-progression:tb;writing-mode:lr-tb;baseline-shift:baseline;text-anchor:start;white-space:normal;clip-rule:nonzero;visibility:visible;isolation:auto;mix-blend-mode:normal;color-interpolation:sRGB;color-interpolation-filters:linearRGB;solid-color:#000000;solid-opacity:1;fill:#333333;fill-opacity:1;fill-rule:nonzero;stroke:none;stroke-width:1px;stroke-linecap:butt;stroke-linejoin:miter;stroke-miterlimit:4;stroke-dasharray:none;stroke-dashoffset:0;stroke-opacity:1;color-rendering:auto;image-rendering:auto;shape-rendering:auto;text-rendering:auto" />
    <path
       inkscape:connector-curvature="0"
       id="path4393"
       d="m 376.25513,615.08704 0,-7.19518 1.21952,0 0,7.19518 -1.21952,0 z"
       style="color:#000000;font-style:normal;font-variant:normal;font-weight:normal;font-stretch:normal;font-size:medium;line-height:120.00000477%;font-family:Ubuntu;-inkscape-font-specification:Ubuntu;text-indent:0;text-align:start;text-decoration:none;text-decoration-line:none;text-decoration-style:solid;text-decoration-color:#000000;letter-spacing:0px;word-spacing:0px;text-transform:none;direction:ltr;block-progression:tb;writing-mode:lr-tb;baseline-shift:baseline;text-anchor:start;white-space:normal;clip-rule:nonzero;visibility:visible;isolation:auto;mix-blend-mode:normal;color-interpolation:sRGB;color-interpolation-filters:linearRGB;solid-color:#000000;solid-opacity:1;fill:#333333;fill-opacity:1;fill-rule:nonzero;stroke:none;stroke-width:1px;stroke-linecap:butt;stroke-linejoin:miter;stroke-miterlimit:4;stroke-dasharray:none;stroke-dashoffset:0;stroke-opacity:1;color-rendering:auto;image-rendering:auto;shape-rendering:auto;text-rendering:auto" />
    <path
       inkscape:connector-curvature="0"
       id="path4391"
       d="m 372.69141,615.08704 0,-6.24666 -1.07724,0 0,-0.94852 1.07724,0 0,-0.76559 q 0,-0.72494 0.12873,-1.07724 0.17615,-0.47426 0.61653,-0.76559 0.44716,-0.29811 1.24663,-0.29811 0.5149,0 1.13822,0.12195 l -0.18293,1.0637 q -0.37941,-0.0677 -0.71816,-0.0677 -0.55556,0 -0.78592,0.23713 -0.23035,0.23713 -0.23035,0.88754 l 0,0.66396 1.40245,0 0,0.94852 -1.40245,0 0,6.24666 -1.21275,0 z"
       style="color:#000000;font-style:normal;font-variant:normal;font-weight:normal;font-stretch:normal;font-size:medium;line-height:120.00000477%;font-family:Ubuntu;-inkscape-font-specification:Ubuntu;text-indent:0;text-align:start;text-decoration:none;text-decoration-line:none;text-decoration-style:solid;text-decoration-color:#000000;letter-spacing:0px;word-spacing:0px;text-transform:none;direction:ltr;block-progression:tb;writing-mode:lr-tb;baseline-shift:baseline;text-anchor:start;white-space:normal;clip-rule:nonzero;visibility:visible;isolation:auto;mix-blend-mode:normal;color-interpolation:sRGB;color-interpolation-filters:linearRGB;solid-color:#000000;solid-opacity:1;fill:#333333;fill-opacity:1;fill-rule:nonzero;stroke:none;stroke-width:1px;stroke-linecap:butt;stroke-linejoin:miter;stroke-miterlimit:4;stroke-dasharray:none;stroke-dashoffset:0;stroke-opacity:1;color-rendering:auto;image-rendering:auto;shape-rendering:auto;text-rendering:auto" />
    <path
       inkscape:connector-curvature="0"
       id="path4389"
       d="m 369.3174,606.55716 0,-1.40245 1.21952,0 0,1.40245 -1.21952,0 z"
       style="color:#000000;font-style:normal;font-variant:normal;font-weight:normal;font-stretch:normal;font-size:medium;line-height:120.00000477%;font-family:Ubuntu;-inkscape-font-specification:Ubuntu;text-indent:0;text-align:start;text-decoration:none;text-decoration-line:none;text-decoration-style:solid;text-decoration-color:#000000;letter-spacing:0px;word-spacing:0px;text-transform:none;direction:ltr;block-progression:tb;writing-mode:lr-tb;baseline-shift:baseline;text-anchor:start;white-space:normal;clip-rule:nonzero;visibility:visible;isolation:auto;mix-blend-mode:normal;color-interpolation:sRGB;color-interpolation-filters:linearRGB;solid-color:#000000;solid-opacity:1;fill:#333333;fill-opacity:1;fill-rule:nonzero;stroke:none;stroke-width:1px;stroke-linecap:butt;stroke-linejoin:miter;stroke-miterlimit:4;stroke-dasharray:none;stroke-dashoffset:0;stroke-opacity:1;color-rendering:auto;image-rendering:auto;shape-rendering:auto;text-rendering:auto" />
    <path
       inkscape:connector-curvature="0"
       id="path4387"
       d="m 369.3174,615.08704 0,-7.19518 1.21952,0 0,7.19518 -1.21952,0 z"
       style="color:#000000;font-style:normal;font-variant:normal;font-weight:normal;font-stretch:normal;font-size:medium;line-height:120.00000477%;font-family:Ubuntu;-inkscape-font-specification:Ubuntu;text-indent:0;text-align:start;text-decoration:none;text-decoration-line:none;text-decoration-style:solid;text-decoration-color:#000000;letter-spacing:0px;word-spacing:0px;text-transform:none;direction:ltr;block-progression:tb;writing-mode:lr-tb;baseline-shift:baseline;text-anchor:start;white-space:normal;clip-rule:nonzero;visibility:visible;isolation:auto;mix-blend-mode:normal;color-interpolation:sRGB;color-interpolation-filters:linearRGB;solid-color:#000000;solid-opacity:1;fill:#333333;fill-opacity:1;fill-rule:nonzero;stroke:none;stroke-width:1px;stroke-linecap:butt;stroke-linejoin:miter;stroke-miterlimit:4;stroke-dasharray:none;stroke-dashoffset:0;stroke-opacity:1;color-rendering:auto;image-rendering:auto;shape-rendering:auto;text-rendering:auto" />
    <path
       inkscape:connector-curvature="0"
       id="path4385"
       d="m 361.58699,615.08704 0,-7.19518 1.09757,0 0,1.02304 q 0.79269,-1.18564 2.28999,-1.18564 0.65041,0 1.19242,0.23713 0.54878,0.23035 0.81979,0.60976 0.271,0.3794 0.37941,0.90109 0.0677,0.33875 0.0677,1.18564 l 0,4.42416 -1.21952,0 0,-4.37673 q 0,-0.74526 -0.14228,-1.11112 -0.14228,-0.37263 -0.50814,-0.58944 -0.35908,-0.22358 -0.84689,-0.22358 -0.77913,0 -1.34824,0.49459 -0.56234,0.49458 -0.56234,1.87671 l 0,3.92957 -1.21952,0 z"
       style="color:#000000;font-style:normal;font-variant:normal;font-weight:normal;font-stretch:normal;font-size:medium;line-height:120.00000477%;font-family:Ubuntu;-inkscape-font-specification:Ubuntu;text-indent:0;text-align:start;text-decoration:none;text-decoration-line:none;text-decoration-style:solid;text-decoration-color:#000000;letter-spacing:0px;word-spacing:0px;text-transform:none;direction:ltr;block-progression:tb;writing-mode:lr-tb;baseline-shift:baseline;text-anchor:start;white-space:normal;clip-rule:nonzero;visibility:visible;isolation:auto;mix-blend-mode:normal;color-interpolation:sRGB;color-interpolation-filters:linearRGB;solid-color:#000000;solid-opacity:1;fill:#333333;fill-opacity:1;fill-rule:nonzero;stroke:none;stroke-width:1px;stroke-linecap:butt;stroke-linejoin:miter;stroke-miterlimit:4;stroke-dasharray:none;stroke-dashoffset:0;stroke-opacity:1;color-rendering:auto;image-rendering:auto;shape-rendering:auto;text-rendering:auto" />
    <path
       inkscape:connector-curvature="0"
       id="path4383"
       d="m 358.23331,605.15471 1.31437,0 0,5.73853 q 0,1.4973 -0.33876,2.37806 -0.33875,0.88077 -1.22629,1.43633 -0.88077,0.54878 -2.31709,0.54878 -1.39568,0 -2.28322,-0.48103 -0.88754,-0.48103 -1.26695,-1.3889 -0.3794,-0.91464 -0.3794,-2.49324 l 0,-5.73853 1.31437,0 0,5.73175 q 0,1.29405 0.23713,1.91059 0.2439,0.60976 0.82656,0.94174 0.58944,0.33198 1.43633,0.33198 1.44987,0 2.06641,-0.65719 0.61654,-0.65719 0.61654,-2.52712 l 0,-5.73175 z"
       style="color:#000000;font-style:normal;font-variant:normal;font-weight:normal;font-stretch:normal;font-size:medium;line-height:120.00000477%;font-family:Ubuntu;-inkscape-font-specification:Ubuntu;text-indent:0;text-align:start;text-decoration:none;text-decoration-line:none;text-decoration-style:solid;text-decoration-color:#000000;letter-spacing:0px;word-spacing:0px;text-transform:none;direction:ltr;block-progression:tb;writing-mode:lr-tb;baseline-shift:baseline;text-anchor:start;white-space:normal;clip-rule:nonzero;visibility:visible;isolation:auto;mix-blend-mode:normal;color-interpolation:sRGB;color-interpolation-filters:linearRGB;solid-color:#000000;solid-opacity:1;fill:#333333;fill-opacity:1;fill-rule:nonzero;stroke:none;stroke-width:1px;stroke-linecap:butt;stroke-linejoin:miter;stroke-miterlimit:4;stroke-dasharray:none;stroke-dashoffset:0;stroke-opacity:1;color-rendering:auto;image-rendering:auto;shape-rendering:auto;text-rendering:auto" />
    <path
       id="path4379"
       style="color:#000000;font-style:normal;font-variant:normal;font-weight:normal;font-stretch:normal;font-size:medium;line-height:120.00000477%;font-family:Ubuntu;-inkscape-font-specification:Ubuntu;text-indent:0;text-align:start;text-decoration:none;text-decoration-line:none;text-decoration-style:solid;text-decoration-color:#000000;letter-spacing:0px;word-spacing:0px;text-transform:none;direction:ltr;block-progression:tb;writing-mode:lr-tb;baseline-shift:baseline;text-anchor:start;white-space:normal;clip-rule:nonzero;visibility:visible;isolation:auto;mix-blend-mode:normal;color-interpolation:sRGB;color-interpolation-filters:linearRGB;solid-color:#000000;solid-opacity:1;fill:#333333;fill-opacity:1;fill-rule:nonzero;stroke:none;stroke-width:1px;stroke-linecap:butt;stroke-linejoin:miter;stroke-miterlimit:4;stroke-dasharray:none;stroke-dashoffset:0;stroke-opacity:1;color-rendering:auto;image-rendering:auto;shape-rendering:auto;text-rendering:auto"
       d="m 344.58144,611.4759 q -0.66396,0.271 -1.99189,0.46071 -0.75203,0.1084 -1.06369,0.2439 -0.31166,0.1355 -0.48103,0.39973 -0.16938,0.25746 -0.16938,0.57589 0,0.48781 0.36586,0.81301 0.37263,0.32521 1.08401,0.32521 0.70462,0 1.2534,-0.30488 0.54879,-0.31166 0.80624,-0.84689 0.19648,-0.41329 0.19648,-1.21952 l 0,-0.44716 z m 0.10163,2.7236 q -0.67752,0.57588 -1.3076,0.81301 -0.62331,0.23713 -1.34148,0.23713 -1.18564,0 -1.8225,-0.57589 -0.63686,-0.58266 -0.63686,-1.48375 0,-0.52846 0.23713,-0.96206 0.2439,-0.44039 0.63008,-0.70462 0.39296,-0.26423 0.88077,-0.39973 0.35908,-0.0949 1.08402,-0.18293 1.47697,-0.17615 2.17481,-0.42005 0.007,-0.25068 0.007,-0.31844 0,-0.74526 -0.34553,-1.05014 -0.46748,-0.41328 -1.3889,-0.41328 -0.86044,0 -1.27372,0.30488 -0.40651,0.2981 -0.60298,1.06369 l -1.19243,-0.1626 q 0.16261,-0.76559 0.53524,-1.23307 0.37263,-0.47426 1.07724,-0.72494 0.70462,-0.25745 1.63281,-0.25745 0.92141,0 1.4973,0.2168 0.57588,0.2168 0.84689,0.54878 0.271,0.32521 0.37941,0.82657 0.061,0.31165 0.061,1.12467 l 0,1.62603 q 0,1.70055 0.0745,2.15449 0.0813,0.44715 0.31165,0.86044 l -1.27372,0 q -0.1897,-0.37941 -0.2439,-0.88754 z" />
    <path
       id="path4373"
       style="color:#000000;font-style:normal;font-variant:normal;font-weight:normal;font-stretch:normal;font-size:medium;line-height:120.00000477%;font-family:Ubuntu;-inkscape-font-specification:Ubuntu;text-indent:0;text-align:start;text-decoration:none;text-decoration-line:none;text-decoration-style:solid;text-decoration-color:#000000;letter-spacing:0px;word-spacing:0px;text-transform:none;direction:ltr;block-progression:tb;writing-mode:lr-tb;baseline-shift:baseline;text-anchor:start;white-space:normal;clip-rule:nonzero;visibility:visible;isolation:auto;mix-blend-mode:normal;color-interpolation:sRGB;color-interpolation-filters:linearRGB;solid-color:#000000;solid-opacity:1;fill:#333333;fill-opacity:1;fill-rule:nonzero;stroke:none;stroke-width:1px;stroke-linecap:butt;stroke-linejoin:miter;stroke-miterlimit:4;stroke-dasharray:none;stroke-dashoffset:0;stroke-opacity:1;color-rendering:auto;image-rendering:auto;shape-rendering:auto;text-rendering:auto"
       d="m 330.28589,611.43525 q 0,1.29404 0.3523,1.86993 0.57589,0.94174 1.55828,0.94174 0.79946,0 1.38212,-0.69106 0.58267,-0.69784 0.58267,-2.07319 0,-1.40922 -0.56234,-2.07996 -0.55556,-0.67074 -1.34825,-0.67074 -0.79946,0 -1.38212,0.69784 -0.58266,0.69106 -0.58266,2.00544 z m 0.0136,3.65179 -1.13145,0 0,-9.93233 1.21952,0 0,3.54339 q 0.77237,-0.96884 1.97156,-0.96884 0.66396,0 1.2534,0.271 0.59621,0.26423 0.97562,0.75204 0.38618,0.48103 0.60298,1.16532 0.21681,0.68429 0.21681,1.46343 0,1.8496 -0.91464,2.8591 -0.91465,1.00949 -2.19514,1.00949 -1.27373,0 -1.99866,-1.06369 l 0,0.90109 z m 6.57186,0 0,-9.93233 1.21952,0 0,9.93233 -1.21952,0 z" />
    <path
       id="path4369"
       style="color:#000000;font-style:normal;font-variant:normal;font-weight:normal;font-stretch:normal;font-size:medium;line-height:120.00000477%;font-family:Ubuntu;-inkscape-font-specification:Ubuntu;text-indent:0;text-align:start;text-decoration:none;text-decoration-line:none;text-decoration-style:solid;text-decoration-color:#000000;letter-spacing:0px;word-spacing:0px;text-transform:none;direction:ltr;block-progression:tb;writing-mode:lr-tb;baseline-shift:baseline;text-anchor:start;white-space:normal;clip-rule:nonzero;visibility:visible;isolation:auto;mix-blend-mode:normal;color-interpolation:sRGB;color-interpolation-filters:linearRGB;solid-color:#000000;solid-opacity:1;fill:#333333;fill-opacity:1;fill-rule:nonzero;stroke:none;stroke-width:1px;stroke-linecap:butt;stroke-linejoin:miter;stroke-miterlimit:4;stroke-dasharray:none;stroke-dashoffset:0;stroke-opacity:1;color-rendering:auto;image-rendering:auto;shape-rendering:auto;text-rendering:auto"
       d="m 326.03116,611.4759 q -0.66396,0.271 -1.99188,0.46071 -0.75204,0.1084 -1.0637,0.2439 -0.31165,0.1355 -0.48103,0.39973 -0.16938,0.25746 -0.16938,0.57589 0,0.48781 0.36586,0.81301 0.37263,0.32521 1.08402,0.32521 0.70461,0 1.25339,-0.30488 0.54879,-0.31166 0.80624,-0.84689 0.19648,-0.41329 0.19648,-1.21952 l 0,-0.44716 z m 0.10163,2.7236 q -0.67751,0.57588 -1.3076,0.81301 -0.62331,0.23713 -1.34147,0.23713 -1.18565,0 -1.82251,-0.57589 -0.63686,-0.58266 -0.63686,-1.48375 0,-0.52846 0.23713,-0.96206 0.2439,-0.44039 0.63008,-0.70462 0.39296,-0.26423 0.88077,-0.39973 0.35908,-0.0949 1.08402,-0.18293 1.47697,-0.17615 2.17481,-0.42005 0.007,-0.25068 0.007,-0.31844 0,-0.74526 -0.34553,-1.05014 -0.46749,-0.41328 -1.3889,-0.41328 -0.86044,0 -1.27373,0.30488 -0.4065,0.2981 -0.60298,1.06369 l -1.19242,-0.1626 q 0.1626,-0.76559 0.53523,-1.23307 0.37263,-0.47426 1.07725,-0.72494 0.70461,-0.25745 1.6328,-0.25745 0.92142,0 1.4973,0.2168 0.57589,0.2168 0.84689,0.54878 0.27101,0.32521 0.37941,0.82657 0.061,0.31165 0.061,1.12467 l 0,1.62603 q 0,1.70055 0.0745,2.15449 0.0813,0.44715 0.31166,0.86044 l -1.27373,0 q -0.1897,-0.37941 -0.2439,-0.88754 z" />
    <path
       inkscape:connector-curvature="0"
       id="path4276"
       d="m 317.1693,615.08704 0,-8.76023 -3.27238,0 0,-1.1721 7.87269,0 0,1.1721 -3.28593,0 0,8.76023 -1.31438,0 z"
       style="color:#000000;font-style:normal;font-variant:normal;font-weight:normal;font-stretch:normal;font-size:medium;line-height:120.00000477%;font-family:Ubuntu;-inkscape-font-specification:Ubuntu;text-indent:0;text-align:start;text-decoration:none;text-decoration-line:none;text-decoration-style:solid;text-decoration-color:#000000;letter-spacing:0px;word-spacing:0px;text-transform:none;direction:ltr;block-progression:tb;writing-mode:lr-tb;baseline-shift:baseline;text-anchor:start;white-space:normal;clip-rule:nonzero;visibility:visible;isolation:auto;mix-blend-mode:normal;color-interpolation:sRGB;color-interpolation-filters:linearRGB;solid-color:#000000;solid-opacity:1;fill:#333333;fill-opacity:1;fill-rule:nonzero;stroke:none;stroke-width:1px;stroke-linecap:butt;stroke-linejoin:miter;stroke-miterlimit:4;stroke-dasharray:none;stroke-dashoffset:0;stroke-opacity:1;color-rendering:auto;image-rendering:auto;shape-rendering:auto;text-rendering:auto" />
  </g>
</svg>
